<svg width="134" height="33" viewBox="0 0 134 33" fill="none" xmlns="http://www.w3.org/2000/svg">
<g clip-path="url(#clip0_621_5733)">
<path fill-rule="evenodd" clip-rule="evenodd" d="M0 32.463C1.77807 31.833 3.39834 30.8278 4.74979 29.5161C6.10124 28.2044 7.15193 26.6174 7.82986 24.8637C8.92432 22.0348 8.10999 18.6367 8.60906 17.5562C9.69785 15.1956 24.9113 16.2734 27.5349 0C23.1729 4.44418 17.9034 7.904 12.0826 10.1455C8.3151 11.5959 2.53819 11.5189 1.98927 15.7875C1.4766 19.7763 8.16369 25.2955 0 32.463Z" fill="#4460FD"/>
<path fill-rule="evenodd" clip-rule="evenodd" d="M11.2667 23.8265C14.183 23.8662 17.0487 23.066 19.519 21.5221C18.4865 22.9461 17.1227 24.0998 15.5444 24.8843C13.9661 25.6687 12.2203 26.0606 10.4567 26.0263C9.60701 27.7508 8.3712 29.2583 6.84439 30.4325C5.31759 31.6067 3.5405 32.4165 1.64996 32.7993C4.9701 32.8244 8.2606 32.176 11.3209 30.8937C14.3811 29.6114 17.1471 27.7219 19.4501 25.3406C21.7531 22.9592 23.5449 20.1359 24.7162 17.0426C25.8876 13.9493 26.4141 10.6509 26.2634 7.34842C25.4835 9.65793 24.2351 11.7832 22.5957 13.5922C20.9563 15.4012 18.961 16.8554 16.7335 17.8645C15.6638 18.3493 12.5669 18.8813 12.0753 19.7786C11.508 20.8157 11.7007 22.5281 11.2667 23.8265Z" fill="#4460FD"/>
<path fill-rule="evenodd" clip-rule="evenodd" d="M30.7419 18.8046C30.7094 17.8346 30.7901 16.864 30.9823 15.9125C31.1136 15.3469 31.3952 14.8268 31.7976 14.4067C32.2388 13.9827 32.7819 13.6786 33.375 13.5234C34.1766 13.3139 35.0037 13.2171 35.8323 13.2359H39.1528V15.0315H35.6496C34.912 14.9668 34.1766 15.1776 33.5864 15.623C33.3505 15.8789 33.1696 16.1802 33.0551 16.5083C32.9405 16.8365 32.8946 17.1845 32.9203 17.531L39.1528 17.5382V19.3266H32.9203V23.5498H30.7419V18.8046ZM46.4464 23.5498C45.7193 23.5797 44.9919 23.4981 44.2897 23.3079C43.8268 23.1352 43.4082 22.8621 43.0643 22.5085C42.7204 22.1549 42.4597 21.7296 42.3011 21.2634C42.139 20.6457 42.0677 20.0078 42.0896 19.3697V13.2359H44.2681V19.3001C44.2546 19.7263 44.2819 20.1528 44.3497 20.5738C44.3899 20.7924 44.486 20.9969 44.6287 21.1677C44.8295 21.4063 45.0923 21.5852 45.3884 21.685C45.7936 21.8023 46.2149 21.8547 46.6365 21.8402H49.2022V23.5498H46.4464ZM53.9782 13.2359V19.4105C53.9782 20.3729 54.1529 21.0449 54.5024 21.4263C54.8535 21.8068 55.457 21.9976 56.3131 21.9986C57.1666 21.9986 57.7677 21.8094 58.1165 21.4309C58.465 21.0504 58.639 20.3769 58.6382 19.4105V13.2359H60.8167V19.4653C60.8296 20.0514 60.7813 20.6372 60.6723 21.2133C60.6033 21.5897 60.445 21.9442 60.2107 22.2473C59.7942 22.7352 59.256 23.1052 58.6502 23.3201C57.1254 23.7793 55.4983 23.7793 53.9735 23.3201C53.365 23.1065 52.8241 22.7364 52.4057 22.2473C52.1782 21.9522 52.0241 21.6076 51.9561 21.2418C51.8475 20.6561 51.7999 20.0608 51.8142 19.4653V13.2359H53.9782ZM68.9303 15.0315C68.608 15.0073 68.2841 15.0471 67.9774 15.1486C67.6708 15.2502 67.3874 15.4114 67.1439 15.623C66.7002 16.1199 66.4621 16.7658 66.4778 17.4305L72.5081 17.4375V19.2262H66.4633C66.4035 19.9213 66.6086 20.6135 67.0378 21.165C67.4154 21.5577 68.0462 21.7542 68.9303 21.7545H72.5081V23.5498H68.8242C68.1798 23.5688 67.5359 23.4996 66.9104 23.344C66.4321 23.1982 65.9869 22.9607 65.6 22.6449C65.0628 22.2118 64.6512 21.6439 64.4074 20.9999C64.1258 20.2229 63.9912 19.4007 64.0106 18.5749C64.0106 16.7506 64.4073 15.4051 65.2009 14.5385C65.9919 13.6694 67.2205 13.2352 68.8868 13.2359H72.5081V15.0315H68.9303ZM76.147 13.2359H78.9049L83.149 20.646L83.0429 13.2359H85.2649V23.5498H82.7401L78.2843 15.7473L78.3831 23.5498H76.147V13.2359ZM91.3707 15.046H88.0236V13.2504H96.9828V15.046H93.6212V23.5498H91.3707V15.046Z" fill="#1B1B1B"/>
<path fill-rule="evenodd" clip-rule="evenodd" d="M104.476 15.0315H101.954V21.7545H104.476C105.438 21.7545 106.102 21.5133 106.47 21.031C106.835 20.5499 107.018 19.6705 107.018 18.393C107.018 17.1194 106.835 16.2429 106.47 15.757C106.102 15.2734 105.437 15.0316 104.476 15.0315ZM99.7755 13.2359H104.517C106.183 13.2359 107.414 13.6701 108.208 14.5385C109.001 15.405 109.398 16.7505 109.398 18.5749C109.418 19.4007 109.283 20.2229 109.001 20.9999C108.758 21.6445 108.345 22.2125 107.806 22.6449C107.42 22.9611 106.975 23.1987 106.496 23.344C105.87 23.4995 105.226 23.5687 104.582 23.5498H99.7755V13.2359ZM111.972 18.2876C111.972 16.5159 112.398 15.1975 113.251 14.3324C114.102 13.4684 115.399 13.0359 117.141 13.0349C118.897 13.0349 120.195 13.4722 121.036 14.3469C121.881 15.2206 122.303 16.5693 122.302 18.393C122.302 20.2172 121.88 21.5682 121.036 22.4459C120.195 23.3246 118.897 23.7643 117.141 23.7651C115.367 23.7651 114.061 23.323 113.225 22.4386C112.39 21.5554 111.972 20.1717 111.972 18.2876ZM117.141 14.8018C116.748 14.773 116.353 14.8367 115.989 14.9876C115.625 15.1386 115.301 15.3726 115.044 15.6708C114.583 16.2501 114.352 17.1272 114.352 18.3021C114.352 19.5732 114.577 20.5045 115.025 21.096C115.28 21.4031 115.605 21.6443 115.974 21.799C116.342 21.9536 116.743 22.0172 117.141 21.9842C117.538 22.0143 117.936 21.9501 118.302 21.7969C118.669 21.6437 118.994 21.406 119.25 21.1032C119.707 20.5165 119.935 19.6131 119.935 18.393C119.935 17.1672 119.707 16.2622 119.25 15.678C118.993 15.3763 118.668 15.1396 118.302 14.9873C117.935 14.8349 117.537 14.7714 117.141 14.8018ZM129.797 15.0029C129.426 14.9697 129.053 15.0307 128.713 15.1802C128.372 15.3297 128.075 15.5628 127.85 15.8577C127.453 16.4272 127.255 17.3641 127.256 18.6683C127.256 19.8007 127.446 20.5978 127.826 21.0599C128.205 21.522 128.862 21.7535 129.797 21.7545H133.373V23.5498H129.692C129.046 23.5687 128.401 23.4995 127.775 23.344C127.297 23.1981 126.853 22.9606 126.467 22.6449C125.928 22.2125 125.516 21.6445 125.272 20.9999C124.99 20.2229 124.856 19.4007 124.875 18.5749C124.875 16.7506 125.272 15.4051 126.065 14.5385C126.859 13.6694 128.089 13.2352 129.754 13.2359H133.373V15.0029H129.797Z" fill="#4460FD"/>
</g>
<defs>
<clipPath id="clip0_621_5733">
<rect width="133.373" height="32.8" fill="white"/>
</clipPath>
</defs>
</svg>
