<svg width="28" height="33" viewBox="0 0 28 33" fill="none" xmlns="http://www.w3.org/2000/svg">
<g clip-path="url(#clip0_621_5733)">
<path fill-rule="evenodd" clip-rule="evenodd" d="M0 32.463C1.77807 31.833 3.39834 30.8278 4.74979 29.5161C6.10124 28.2044 7.15193 26.6174 7.82986 24.8637C8.92432 22.0348 8.10999 18.6367 8.60906 17.5562C9.69785 15.1956 24.9113 16.2734 27.5349 0C23.1729 4.44418 17.9034 7.904 12.0826 10.1455C8.3151 11.5959 2.53819 11.5189 1.98927 15.7875C1.4766 19.7763 8.16369 25.2955 0 32.463Z" fill="#4460FD"/>
<path fill-rule="evenodd" clip-rule="evenodd" d="M11.2667 23.8265C14.183 23.8662 17.0487 23.066 19.519 21.5221C18.4865 22.9461 17.1227 24.0998 15.5444 24.8843C13.9661 25.6687 12.2203 26.0606 10.4567 26.0263C9.60701 27.7508 8.3712 29.2583 6.84439 30.4325C5.31759 31.6067 3.5405 32.4165 1.64996 32.7993C4.9701 32.8244 8.2606 32.176 11.3209 30.8937C14.3811 29.6114 17.1471 27.7219 19.4501 25.3406C21.7531 22.9592 23.5449 20.1359 24.7162 17.0426C25.8876 13.9493 26.4141 10.6509 26.2634 7.34842C25.4835 9.65793 24.2351 11.7832 22.5957 13.5922C20.9563 15.4012 18.961 16.8554 16.7335 17.8645C15.6638 18.3493 12.5669 18.8813 12.0753 19.7786C11.508 20.8157 11.7007 22.5281 11.2667 23.8265Z" fill="#4460FD"/>
</g>
<defs>
<clipPath id="clip0_621_5733">
<rect width="27.5349" height="32.8" fill="white"/>
</clipPath>
</defs>
</svg>
