<svg xmlns="http://www.w3.org/2000/svg" viewBox="0 0 287.82859 70.97172"><defs><style>.a{fill:#fff;fill-rule:evenodd;}</style></defs><path class="a" d="M0,70.2426A28.20862,28.20862,0,0,0,16.8687,53.7993c2.3579-6.1211.6035-13.4737,1.6787-15.8116C20.8931,32.8798,53.669,35.2119,59.3213,0A93.91659,93.91659,0,0,1,26.0308,21.9526c-8.1167,3.1382-20.5625,2.9717-21.7451,12.208C3.1812,42.7915,17.5879,54.7338,0,70.2426Z"/><path class="a" d="M24.273,51.5551a32.60058,32.60058,0,0,0,17.7788-4.9863,23.51318,23.51318,0,0,1-19.5239,9.7461A27.16317,27.16317,0,0,1,3.5547,70.9702,52.68159,52.68159,0,0,0,56.5821,15.9003,38.46894,38.46894,0,0,1,36.0508,38.6547c-2.3047,1.0489-8.9766,2.2002-10.0356,4.1416C24.793,45.0405,25.208,48.7456,24.273,51.5551Z"/><path class="a" d="M74.1411,54.3745a3.25217,3.25217,0,0,0-3.4575-2.8858c-2.4809,0-3.9404,1.8526-3.9404,4.2324a3.867,3.867,0,0,0,3.9404,4.1651,3.38582,3.38582,0,0,0,3.5249-3.2783H72.502a1.80616,1.80616,0,0,1-1.8184,1.7968c-1.583,0-2.1782-1.3476-2.1782-2.6836,0-1.4033.5952-2.75,2.1782-2.75a1.73237,1.73237,0,0,1,1.751,1.4034Zm4.1665,1.3466a3.94651,3.94651,0,1,0,7.8809,0c0-2.3798-1.46-4.2324-3.9404-4.2324-2.481,0-3.9405,1.8526-3.9405,4.2324Zm1.7622,0c0-1.4033.5953-2.75,2.1783-2.75,1.5825,0,2.1777,1.3467,2.1777,2.75,0,1.336-.5952,2.6836-2.1777,2.6836-1.583,0-2.1783-1.3476-2.1783-2.6836Zm10.5655,3.9737h1.6509V54.3295h.0224l3.3335,5.3653h1.7627V51.6801H95.7549v5.377H95.732l-3.3453-5.377H90.6353v8.0147Zm11.0595-2.6602c-.0224,1.9756,1.6392,2.8516,3.4126,2.8516,2.17829,0,3.33449-1.1006,3.33449-2.5703,0-1.8194-1.7964-2.1895-2.3799-2.336-2.00969-.5156-2.39159-.5947-2.39159-1.2119,0-.6738.6514-.9092,1.21239-.9092.8423,0,1.5269.2471,1.583,1.212h1.70661c0-1.8526-1.53811-2.5821-3.211-2.5821-1.4482,0-2.997.7862-2.997,2.4248,0,1.5049,1.2011,1.9649,2.3911,2.2793,1.17869.3145,2.37939.46,2.37939,1.3242,0,.8204-.9424.9991-1.5601.9991-.94279,0-1.77339-.4151-1.77339-1.4815Zm12.8106,2.6602h1.76219V53.1616h2.4023V51.6801H112.103v1.4815h2.40241v6.5332Zm8.331,0h1.76269V56.5629h1.7627c.8868,0,1.2124.3702,1.3355,1.2129a8.88623,8.88623,0,0,0,.2812,1.919h1.7622a4.37614,4.37614,0,0,1-.3369-1.8965c-.0561-.8086-.3027-1.6504-1.1675-1.875v-.0225a1.97183,1.97183,0,0,0,1.2686-2.0097,2.20209,2.20209,0,0,0-2.3462-2.211H122.8364v8.0147Zm1.76269-6.6455h1.9312c.7856,0,1.2119.3369,1.2119,1.1113,0,.8086-.4263,1.1455-1.2119,1.1455h-1.9312V53.0493Zm16.3926-1.3692H139.229v4.9844c0,1.1895-.4048,1.7402-1.66159,1.7402-1.42581,0-1.65041-.8652-1.65041-1.7402V51.6801h-1.7622v4.9844c0,2.1777,1.2568,3.2217,3.41261,3.2217,2.144,0,3.42429-1.0557,3.42429-3.2217V51.6801Zm11.8106,2.6944a3.25154,3.25154,0,0,0-3.4571-2.8858c-2.4804,0-3.9404,1.8526-3.9404,4.2324a3.8673,3.8673,0,0,0,3.9404,4.1651,3.38517,3.38517,0,0,0,3.5245-3.2783h-1.7061a1.80584,1.80584,0,0,1-1.8184,1.7968c-1.583,0-2.1787-1.3476-2.1787-2.6836,0-1.4033.5957-2.75,2.1787-2.75a1.73237,1.73237,0,0,1,1.751,1.4034Zm6.289,5.3203h1.7617V53.1616h2.40341V51.6801H156.689v1.4815h2.4023v6.5332Zm8.33111,0h6.08489V58.2133h-4.3222V56.2485h3.8838V54.8794h-3.8838V53.1616h4.2324V51.6801H167.4224v8.0147Zm10.52049,0h3.458c2.4473,0,3.6377-1.7285,3.6377-4.0528,0-2.6601-1.5615-3.9619-3.6377-3.9619h-3.458v8.0147Zm1.7627-6.5332h1.25781c1.751,0,2.31249,1.0322,2.31249,2.6494,0,1.7734-.97749,2.4023-1.998,2.4023h-1.5723V53.1616Zm12.92281,6.5332h5.669V58.2133h-3.90631V51.6801H192.6284v8.0147Zm9.04979,0h1.78521l.62789-1.7842h2.99811l.60639,1.7842h1.8291l-2.997-8.0147h-1.8067l-3.043,8.0147Zm3.918-6.0391h.0225l1.00971,2.9414h-2.07611l1.0439-2.9414Zm7.8711,6.0391h1.6504V54.3295h.0225l3.3339,5.3653h1.7627V51.6801H218.5864v5.377H218.564l-3.3447-5.377h-1.752v8.0147Zm17.53711,0h1.12309v-4.333h-3.3682v1.3134h1.7734a1.73635,1.73635,0,0,1-1.9082,1.7295c-1.583,0-2.1777-1.3476-2.1777-2.6836,0-1.4033.5947-2.75,2.1777-2.75a1.64251,1.64251,0,0,1,1.6953,1.3467h1.68361a3.22185,3.22185,0,0,0-3.37891-2.8291c-2.4814,0-3.9404,1.8526-3.9404,4.2324a3.86675,3.86675,0,0,0,3.9404,4.1651,2.71046,2.71046,0,0,0,2.2002-1.1006l.17971.9092Zm12.59769-8.0147H241.8394v4.9844c0,1.1895-.40431,1.7402-1.66211,1.7402-1.4258,0-1.6494-.8652-1.6494-1.7402V51.6801h-1.7627v4.9844c0,2.1777,1.2568,3.2217,3.4121,3.2217,2.1445,0,3.4248-1.0557,3.4248-3.2217V51.6801Zm3.9082,8.0147h1.78511l.628-1.7842h2.998l.60549,1.7842h1.8301l-2.9971-8.0147h-1.8076l-3.042,8.0147Zm3.9179-6.0391h.0225l1.0098,2.9414h-2.0772l1.0449-2.9414Zm13.8438,6.0391h1.1221v-4.333h-3.3682v1.3134h1.7744a1.73672,1.73672,0,0,1-1.9092,1.7295c-1.583,0-2.17769-1.3476-2.17769-2.6836,0-1.4033.59469-2.75,2.17769-2.75a1.64252,1.64252,0,0,1,1.69531,1.3467H266.271a3.22215,3.22215,0,0,0-3.3799-2.8291c-2.4804,0-3.9394,1.8526-3.9394,4.2324a3.86653,3.86653,0,0,0,3.9394,4.1651,2.71046,2.71046,0,0,0,2.2002-1.1006l.1807.9092Zm5.7939,0h6.084V58.2133h-4.3213V56.2485h3.88381V54.8794h-3.88381V53.1616h4.2325V51.6801h-5.9952v8.0147Zm10.0157-2.6602c-.0225,1.9756,1.6386,2.8516,3.4121,2.8516,2.17771,0,3.3349-1.1006,3.3349-2.5703,0-1.8194-1.7968-2.1895-2.3808-2.336-2.0088-.5156-2.3906-.5947-2.3906-1.2119,0-.6738.6513-.9092,1.2119-.9092.8427,0,1.52731.2471,1.583,1.212h1.707c0-1.8526-1.5381-2.5821-3.2109-2.5821-1.4483,0-2.9971.7862-2.9971,2.4248,0,1.5049,1.2012,1.9649,2.3906,2.2793,1.17871.3145,2.3799.46,2.3799,1.3242,0,.8204-.9424.9991-1.5605.9991-.9424,0-1.7735-.4151-1.7735-1.4815Z"/><path class="a" d="M66.7193,34.4458a27.14806,27.14806,0,0,1,.518-6.2579,7.00987,7.00987,0,0,1,1.7564-3.2583,7.71972,7.71972,0,0,1,3.3984-1.9111,19.13365,19.13365,0,0,1,5.294-.6221h7.1538v3.8853H77.2925a6.42457,6.42457,0,0,0-4.4448,1.2798,5.5048,5.5048,0,0,0-1.4351,4.1284l13.4273.0156v3.8697H71.4126v9.1381H66.7193V34.4458Zm33.8339,10.2675a15.29983,15.29983,0,0,1-4.6464-.5234,7.18635,7.18635,0,0,1-4.2842-4.4238,14.27884,14.27884,0,0,1-.4556-4.0977V22.3964h4.6934V35.518a14.503,14.503,0,0,0,.1758,2.7559,2.79678,2.79678,0,0,0,.601,1.2851,3.66865,3.66865,0,0,0,1.6367,1.1192,8.574,8.574,0,0,0,2.689.3359h5.52739v3.6992Zm16.22659-22.3169V35.7568q0,3.12375,1.1294,4.3618,1.13445,1.23495,3.9009,1.2383,2.7582,0,3.8852-1.2285,1.1265-1.23495,1.12411-4.3716V22.3964h4.69329v13.479a18.27231,18.27231,0,0,1-.311,3.7823,5.1996,5.1996,0,0,1-.9946,2.2373,7.88832,7.88832,0,0,1-3.3619,2.3213,17.4034,17.4034,0,0,1-10.0756,0,7.87586,7.87586,0,0,1-3.3775-2.3213,5.09311,5.09311,0,0,1-.96869-2.1758,18.70422,18.70422,0,0,1-.30571-3.8438V22.3964Zm32.2129,3.8853a5.2514,5.2514,0,0,0-3.8486,1.2798,5.68512,5.68512,0,0,0-1.4351,3.9111l12.9917.0151v3.8702h-13.0229a6.01163,6.01163,0,0,0,1.2377,4.1953q1.22025,1.2744,4.0772,1.2754h7.708v3.8847h-7.9365a15.15605,15.15605,0,0,1-4.1231-.4453,8.27184,8.27184,0,0,1-2.8232-1.5127,8.384,8.384,0,0,1-2.5693-3.5595,14.4613,14.4613,0,0,1-.855-5.2471q0-5.921,2.5644-8.7339,2.55615-2.8206,7.9409-2.8184h7.8018v3.8853Zm15.5478-3.8853h5.9415l9.1435,16.0337-.2285-16.0337h4.7871V44.7133h-5.4394L169.145,27.8305l.2129,16.8828h-4.8174V22.3964Zm32.79791,3.9165h-7.21091V22.4277h19.3017v3.8852H202.187V44.7133H197.3384Z"/><path class="a" d="M225.57279,26.2817h-5.4336V40.8286h5.4336q3.1083,0,4.2949-1.5655,1.18065-1.5615,1.18071-5.708c0-2.7558-.39361-4.6523-1.18071-5.7036q-1.1895-1.5696-4.2949-1.5698Zm-10.127-3.8853h10.2149q5.3847,0,7.9521,2.8184,2.5635,2.8125,2.5645,8.7339a14.45225,14.45225,0,0,1-.8555,5.2471,8.35363,8.35363,0,0,1-2.5742,3.5595,8.23233,8.23233,0,0,1-2.8233,1.5127,15.18287,15.18287,0,0,1-4.124.4453h-10.3545V22.3964Zm26.2754,10.9307q0-5.75025,2.7559-8.5581,2.751-2.8044,8.3818-2.8076,5.6733,0,8.3916,2.8388,2.72895,2.836,2.7256,8.7549,0,5.92095-2.7256,8.7696-2.71875,2.85195-8.3916,2.8545-5.7348,0-8.43849-2.8702-2.69672-2.86665-2.69921-8.9819Zm11.1377-7.5425a5.42686,5.42686,0,0,0-4.5176,1.8804q-1.49115,1.8801-1.4912,5.6934,0,4.1256,1.4502,6.0454a5.33638,5.33638,0,0,0,4.5586,1.9218,5.40306,5.40306,0,0,0,4.543-1.9062q1.4766-1.90425,1.47651-5.8643,0-3.97845-1.47651-5.8745a5.40959,5.40959,0,0,0-4.543-1.896Zm27.2656.4351a4.73966,4.73966,0,0,0-4.1953,1.8496q-1.2831,1.8486-1.2803,6.0815,0,3.6753,1.2286,5.1748,1.22595,1.5,4.247,1.503h7.7032v3.8847H279.897a15.22263,15.22263,0,0,1-4.1289-.4453,8.25594,8.25594,0,0,1-2.8184-1.5127,8.35363,8.35363,0,0,1-2.5742-3.5595,14.45324,14.45324,0,0,1-.8545-5.2471q0-5.921,2.5635-8.7339,2.565-2.8206,7.9473-2.8184h7.7959v3.8233Z"/></svg>