<svg xmlns="http://www.w3.org/2000/svg" xmlns:xlink="http://www.w3.org/1999/xlink" width="500" zoomAndPan="magnify" viewBox="0 0 375 374.999991" height="500" preserveAspectRatio="xMidYMid meet" version="1.0"><defs><clipPath id="59505ec1e6"><path d="M 58 37.5 L 318 37.5 L 318 300 L 58 300 Z M 58 37.5 " clip-rule="nonzero"/></clipPath></defs><g clip-path="url(#59505ec1e6)"><path fill="#617080" d="M 115.976562 109.511719 C 115.976562 108.335938 116.007812 107.160156 116.066406 105.984375 C 116.125 104.8125 116.210938 103.640625 116.328125 102.46875 C 116.445312 101.296875 116.589844 100.132812 116.761719 98.96875 C 116.9375 97.804688 117.140625 96.644531 117.371094 95.492188 C 117.601562 94.339844 117.859375 93.191406 118.144531 92.050781 C 118.429688 90.910156 118.746094 89.777344 119.085938 88.652344 C 119.429688 87.527344 119.800781 86.410156 120.195312 85.304688 C 120.59375 84.195312 121.015625 83.097656 121.46875 82.011719 C 121.917969 80.925781 122.394531 79.851562 122.898438 78.789062 C 123.402344 77.726562 123.929688 76.675781 124.484375 75.636719 C 125.039062 74.601562 125.621094 73.578125 126.226562 72.570312 C 126.832031 71.558594 127.460938 70.566406 128.113281 69.589844 C 128.765625 68.609375 129.445312 67.648438 130.144531 66.707031 C 130.847656 65.761719 131.570312 64.832031 132.316406 63.925781 C 133.0625 63.015625 133.828125 62.125 134.621094 61.253906 C 135.410156 60.382812 136.21875 59.53125 137.050781 58.699219 C 137.882812 57.867188 138.734375 57.054688 139.605469 56.265625 C 140.476562 55.476562 141.367188 54.707031 142.277344 53.960938 C 143.1875 53.214844 144.113281 52.492188 145.058594 51.789062 C 146.003906 51.089844 146.964844 50.410156 147.941406 49.757812 C 148.917969 49.105469 149.914062 48.472656 150.921875 47.871094 C 151.929688 47.265625 152.953125 46.683594 153.988281 46.128906 C 155.027344 45.574219 156.078125 45.046875 157.140625 44.542969 C 158.203125 44.039062 159.277344 43.5625 160.363281 43.109375 C 161.449219 42.660156 162.546875 42.234375 163.652344 41.839844 C 164.761719 41.441406 165.878906 41.070312 167.003906 40.730469 C 168.128906 40.386719 169.261719 40.074219 170.402344 39.785156 C 171.542969 39.5 172.691406 39.242188 173.84375 39.011719 C 174.996094 38.78125 176.15625 38.578125 177.320312 38.402344 C 178.480469 38.230469 179.648438 38.085938 180.820312 37.96875 C 181.988281 37.851562 183.160156 37.765625 184.335938 37.703125 C 185.511719 37.644531 186.6875 37.617188 187.863281 37.613281 C 282.878906 40.976562 283.066406 177.75 188.105469 181.398438 C 186.929688 181.402344 185.75 181.375 184.574219 181.320312 C 183.394531 181.265625 182.21875 181.179688 181.046875 181.070312 C 179.875 180.957031 178.703125 180.8125 177.539062 180.644531 C 176.371094 180.472656 175.210938 180.273438 174.054688 180.046875 C 172.894531 179.820312 171.746094 179.5625 170.601562 179.28125 C 169.457031 178.996094 168.320312 178.683594 167.191406 178.34375 C 166.0625 178.003906 164.945312 177.636719 163.835938 177.242188 C 162.722656 176.847656 161.625 176.425781 160.535156 175.976562 C 159.445312 175.527344 158.363281 175.054688 157.296875 174.550781 C 156.230469 174.050781 155.179688 173.523438 154.136719 172.96875 C 153.097656 172.414062 152.070312 171.835938 151.058594 171.230469 C 150.046875 170.628906 149.050781 170 148.070312 169.347656 C 147.085938 168.695312 146.121094 168.015625 145.175781 167.316406 C 144.226562 166.617188 143.296875 165.894531 142.382812 165.144531 C 141.472656 164.398438 140.578125 163.632812 139.703125 162.84375 C 138.828125 162.050781 137.972656 161.242188 137.140625 160.410156 C 136.304688 159.578125 135.488281 158.726562 134.695312 157.851562 C 133.902344 156.980469 133.132812 156.089844 132.382812 155.179688 C 131.632812 154.269531 130.90625 153.34375 130.203125 152.398438 C 129.5 151.449219 128.820312 150.488281 128.164062 149.507812 C 127.507812 148.53125 126.875 147.535156 126.269531 146.527344 C 125.660156 145.515625 125.078125 144.492188 124.523438 143.453125 C 123.964844 142.414062 123.433594 141.363281 122.925781 140.296875 C 122.421875 139.234375 121.941406 138.15625 121.492188 137.066406 C 121.039062 135.980469 120.613281 134.878906 120.214844 133.769531 C 119.816406 132.660156 119.445312 131.542969 119.101562 130.414062 C 118.757812 129.289062 118.441406 128.152344 118.152344 127.011719 C 117.867188 125.867188 117.605469 124.71875 117.375 123.5625 C 117.144531 122.40625 116.941406 121.246094 116.765625 120.078125 C 116.59375 118.914062 116.445312 117.746094 116.328125 116.570312 C 116.214844 115.398438 116.125 114.222656 116.066406 113.046875 C 116.007812 111.871094 115.976562 110.691406 115.976562 109.511719 Z M 260.625 181.433594 C 259.667969 180.84375 258.644531 180.40625 257.5625 180.113281 C 256.476562 179.824219 255.375 179.691406 254.25 179.71875 C 253.128906 179.746094 252.03125 179.933594 250.964844 180.277344 C 249.894531 180.621094 248.898438 181.109375 247.96875 181.746094 C 245.828125 183.484375 243.617188 185.128906 241.332031 186.675781 C 239.050781 188.222656 236.707031 189.671875 234.296875 191.015625 C 231.890625 192.363281 229.429688 193.601562 226.914062 194.738281 C 224.398438 195.871094 221.839844 196.894531 219.238281 197.808594 C 216.636719 198.722656 214 199.519531 211.328125 200.207031 C 208.65625 200.894531 205.960938 201.460938 203.238281 201.917969 C 200.519531 202.371094 197.78125 202.707031 195.03125 202.925781 C 192.285156 203.140625 189.53125 203.242188 186.769531 203.222656 C 184.011719 203.203125 181.261719 203.066406 178.515625 202.808594 C 175.769531 202.550781 173.039062 202.175781 170.324219 201.683594 C 167.609375 201.195312 164.921875 200.585938 162.257812 199.863281 C 159.597656 199.140625 156.972656 198.300781 154.382812 197.351562 C 151.792969 196.402344 149.25 195.34375 146.75 194.171875 C 144.253906 193.003906 141.808594 191.730469 139.421875 190.351562 C 137.03125 188.972656 134.707031 187.492188 132.445312 185.910156 C 130.183594 184.332031 127.996094 182.65625 125.878906 180.886719 C 125.082031 180.519531 124.25 180.253906 123.386719 180.089844 C 122.523438 179.925781 121.65625 179.863281 120.777344 179.910156 C 119.898438 179.957031 119.042969 180.105469 118.199219 180.363281 C 117.359375 180.617188 116.5625 180.96875 115.804688 181.417969 C 113.597656 182.886719 111.433594 184.421875 109.320312 186.023438 C 107.207031 187.628906 105.140625 189.292969 103.128906 191.023438 C 101.117188 192.753906 99.160156 194.542969 97.257812 196.394531 C 95.359375 198.246094 93.515625 200.152344 91.730469 202.117188 C 89.945312 204.082031 88.222656 206.097656 86.566406 208.167969 C 84.90625 210.238281 83.308594 212.355469 81.78125 214.523438 C 80.25 216.691406 78.789062 218.90625 77.398438 221.164062 C 76.003906 223.421875 74.683594 225.722656 73.429688 228.0625 C 72.179688 230.402344 71 232.777344 69.898438 235.191406 C 68.792969 237.601562 67.761719 240.046875 66.808594 242.523438 C 65.855469 245 64.976562 247.5 64.175781 250.03125 C 63.375 252.5625 62.65625 255.113281 62.011719 257.6875 C 61.371094 260.261719 60.804688 262.855469 60.324219 265.464844 C 59.839844 268.070312 59.4375 270.695312 59.117188 273.328125 C 58.792969 275.960938 58.554688 278.601562 58.394531 281.25 C 58.238281 283.898438 58.160156 286.550781 58.164062 289.203125 C 58.164062 289.929688 58.234375 290.648438 58.375 291.359375 C 58.515625 292.070312 58.726562 292.761719 59.003906 293.433594 C 59.28125 294.101562 59.621094 294.738281 60.023438 295.339844 C 60.425781 295.945312 60.882812 296.503906 61.398438 297.015625 C 61.910156 297.527344 62.46875 297.988281 63.070312 298.390625 C 63.675781 298.792969 64.3125 299.132812 64.980469 299.410156 C 65.652344 299.6875 66.34375 299.894531 67.054688 300.039062 C 67.765625 300.179688 68.484375 300.25 69.207031 300.25 L 306.886719 300.25 C 307.609375 300.25 308.328125 300.179688 309.039062 300.039062 C 309.75 299.894531 310.441406 299.6875 311.113281 299.410156 C 311.78125 299.132812 312.417969 298.792969 313.023438 298.390625 C 313.625 297.988281 314.183594 297.527344 314.695312 297.015625 C 315.210938 296.503906 315.667969 295.945312 316.070312 295.339844 C 316.472656 294.738281 316.8125 294.101562 317.089844 293.433594 C 317.367188 292.761719 317.578125 292.070312 317.71875 291.359375 C 317.859375 290.648438 317.929688 289.929688 317.929688 289.203125 C 317.925781 286.554688 317.84375 283.910156 317.679688 281.269531 C 317.519531 278.625 317.273438 275.992188 316.949219 273.363281 C 316.625 270.738281 316.222656 268.121094 315.738281 265.519531 C 315.253906 262.914062 314.691406 260.328125 314.050781 257.761719 C 313.410156 255.191406 312.691406 252.644531 311.894531 250.121094 C 311.097656 247.597656 310.222656 245.097656 309.273438 242.625 C 308.324219 240.15625 307.300781 237.714844 306.203125 235.304688 C 305.105469 232.894531 303.933594 230.523438 302.691406 228.183594 C 301.449219 225.847656 300.136719 223.550781 298.753906 221.292969 C 297.371094 219.035156 295.917969 216.820312 294.398438 214.652344 C 292.882812 212.484375 291.300781 210.363281 289.652344 208.289062 C 288.003906 206.21875 286.292969 204.199219 284.523438 202.230469 C 282.753906 200.261719 280.925781 198.351562 279.035156 196.492188 C 277.148438 194.636719 275.207031 192.839844 273.210938 191.101562 C 271.210938 189.363281 269.164062 187.6875 267.0625 186.074219 C 264.964844 184.460938 262.816406 182.914062 260.625 181.433594 Z M 260.625 181.433594 " fill-opacity="1" fill-rule="nonzero"/></g></svg>