<svg width="291" height="300" viewBox="0 0 291 300" fill="none" xmlns="http://www.w3.org/2000/svg">
<g clip-path="url(#clip0_59_12044)">
<path d="M204.142 300H124.553C123.627 299.999 122.74 299.631 122.086 298.977C121.432 298.322 121.064 297.435 121.063 296.51V240.85C121.064 239.924 121.432 239.037 122.086 238.383C122.74 237.728 123.627 237.36 124.553 237.359H204.142C205.067 237.36 205.954 237.728 206.608 238.383C207.262 239.037 207.63 239.924 207.631 240.85V296.51C207.63 297.435 207.262 298.322 206.608 298.976C205.954 299.631 205.067 299.999 204.142 300Z" fill="#B4DFFE"/>
<path d="M74.0773 154.908C74.6109 154.225 74.9883 153.434 75.1829 152.589C75.3775 151.744 75.3845 150.867 75.2035 150.019C75.0225 149.171 74.6579 148.374 74.1354 147.682C73.6128 146.991 72.945 146.422 72.179 146.017L71.6775 92.7689L61.728 97.336L63.9164 148.834C63.3207 150.166 63.2343 151.671 63.6735 153.063C64.1127 154.455 65.0471 155.637 66.2996 156.386C67.5521 157.134 69.0356 157.398 70.4691 157.125C71.9026 156.853 73.1864 156.064 74.0773 154.908Z" fill="#9E616A"/>
<path d="M73.8091 79.2877C73.8091 79.2877 64.1305 74.5916 62.7919 83.4517C61.4534 92.3119 55.9478 115.372 55.9478 115.372L72.6546 114.19L73.8091 79.2877Z" fill="#9E616A"/>
<path d="M74.0773 154.908C74.6109 154.225 74.9883 153.434 75.1829 152.589C75.3775 151.744 75.3845 150.867 75.2035 150.019C75.0225 149.171 74.6579 148.374 74.1354 147.682C73.6128 146.991 72.945 146.422 72.179 146.017L71.6775 92.7689L61.728 97.336L63.9164 148.834C63.3207 150.166 63.2343 151.671 63.6735 153.063C64.1127 154.455 65.0471 155.637 66.2996 156.386C67.5521 157.134 69.0356 157.398 70.4691 157.125C71.9026 156.853 73.1864 156.064 74.0773 154.908Z" fill="#9E616A"/>
<path d="M73.8091 79.2877C73.8091 79.2877 64.1305 74.5916 62.7919 83.4517C61.4534 92.3119 55.9478 115.372 55.9478 115.372L72.6546 114.19L73.8091 79.2877Z" fill="#4460FD"/>
<path d="M45.7851 284.405C45.3943 284.423 45.0075 284.32 44.6769 284.111C44.3464 283.901 44.0882 283.595 43.9373 283.234C43.7864 282.873 43.75 282.475 43.8332 282.092C43.9164 281.71 44.1151 281.362 44.4024 281.097C44.4505 280.905 44.485 280.768 44.5331 280.577C44.5159 280.535 44.4986 280.494 44.4811 280.452C44.0875 279.522 43.4278 278.729 42.5849 278.173C41.7421 277.616 40.7537 277.321 39.7439 277.325C38.7341 277.329 37.7479 277.631 36.9093 278.194C36.0706 278.756 35.4168 279.554 35.03 280.487C33.4842 284.211 31.5162 287.941 31.0316 291.879C30.8182 293.619 30.9082 295.384 31.2977 297.093C27.6671 289.171 25.7818 280.561 25.7697 271.847C25.7689 269.66 25.8904 267.475 26.1335 265.302C26.3344 263.52 26.6132 261.751 26.9698 259.995C28.9157 250.465 33.0937 241.534 39.1607 233.933C42.0971 232.331 44.4718 229.866 45.9648 226.872C46.5056 225.796 46.8879 224.647 47.0997 223.461C46.7685 223.505 46.4318 223.532 46.1006 223.553C45.9974 223.559 45.8888 223.564 45.7856 223.57L45.7467 223.571C45.3826 223.588 45.0216 223.498 44.7071 223.314C44.3926 223.13 44.138 222.859 43.9739 222.534C43.8099 222.208 43.7434 221.842 43.7825 221.48C43.8216 221.117 43.9645 220.774 44.1942 220.491C44.3372 220.315 44.4803 220.139 44.6235 219.963C44.8407 219.691 45.0634 219.425 45.2806 219.154C45.3056 219.128 45.3292 219.101 45.3512 219.072C45.601 218.763 45.8507 218.458 46.1006 218.149C45.6446 217.441 45.0313 216.848 44.3086 216.416C41.8052 214.95 38.3516 215.965 36.5433 218.23C34.7296 220.495 34.3875 223.673 35.0174 226.503C35.6368 228.911 36.6615 231.196 38.0475 233.26C37.9117 233.434 37.7705 233.602 37.6347 233.776C35.1531 236.968 32.9902 240.395 31.177 244.009C31.6179 239.961 31.0916 235.865 29.6414 232.059C28.1716 228.513 25.4167 225.526 22.9907 222.46C20.0767 218.777 14.1012 220.384 13.5878 225.053C13.5829 225.098 13.578 225.143 13.5733 225.188C13.9336 225.392 14.2864 225.607 14.6315 225.836C15.065 226.126 15.401 226.54 15.5953 227.024C15.7896 227.508 15.8332 228.039 15.7205 228.548C15.6077 229.057 15.3437 229.521 14.9632 229.877C14.5827 230.234 14.1034 230.467 13.5881 230.547L13.5353 230.555C13.6637 231.854 13.8906 233.141 14.2141 234.406C15.1514 237.936 16.8078 241.235 19.0795 244.095C21.3511 246.955 24.1889 249.315 27.415 251.027C27.6268 251.136 27.8332 251.244 28.045 251.347C26.2232 256.511 25.0805 261.89 24.6456 267.349C24.3994 270.57 24.4139 273.805 24.6891 277.023L24.6728 276.909C23.9776 273.331 22.0692 270.102 19.2696 267.767C15.1117 264.351 9.23718 263.093 4.75144 260.347C4.27472 260.04 3.72041 259.877 3.15388 259.876C2.58736 259.874 2.03225 260.035 1.55403 260.339C1.07582 260.643 0.694449 261.077 0.454893 261.59C0.215336 262.104 0.127593 262.675 0.202008 263.237C0.208024 263.277 0.214133 263.317 0.220346 263.357C0.889035 263.629 1.54011 263.943 2.16978 264.297C2.53013 264.5 2.88286 264.716 3.22798 264.944C3.66154 265.234 3.9975 265.648 4.19182 266.132C4.38614 266.616 4.42975 267.147 4.31696 267.656C4.20418 268.166 3.94025 268.629 3.55974 268.986C3.17924 269.342 2.69992 269.576 2.18458 269.655L2.13177 269.663C2.09375 269.669 2.06118 269.674 2.02322 269.679C3.16577 272.408 4.76937 274.92 6.76379 277.105C9.22758 279.749 12.2054 281.862 15.5146 283.315C18.8239 284.767 22.3949 285.528 26.0086 285.551H26.014C26.995 289.815 28.4163 293.965 30.2551 297.935H45.4055C45.4598 297.767 45.5087 297.593 45.5575 297.425C44.1552 297.513 42.7473 297.429 41.3654 297.175C42.4894 295.795 43.6135 294.405 44.7375 293.025C44.7626 292.999 44.7862 292.972 44.8081 292.943C45.3783 292.237 45.9539 291.537 46.5241 290.831L46.5244 290.83C46.5548 288.665 46.3065 286.506 45.7856 284.405L45.7851 284.405Z" fill="#B4DFFE"/>
<path d="M269.146 284.405C268.756 284.423 268.369 284.32 268.038 284.111C267.708 283.901 267.45 283.595 267.299 283.234C267.148 282.873 267.111 282.475 267.195 282.092C267.278 281.71 267.476 281.362 267.764 281.097C267.812 280.905 267.846 280.768 267.894 280.577C267.877 280.535 267.86 280.494 267.842 280.452C267.449 279.522 266.789 278.729 265.946 278.173C265.103 277.616 264.115 277.321 263.105 277.325C262.095 277.329 261.109 277.631 260.271 278.194C259.432 278.756 258.778 279.554 258.391 280.487C256.846 284.211 254.878 287.941 254.393 291.879C254.18 293.619 254.27 295.384 254.659 297.093C251.028 289.171 249.143 280.561 249.131 271.847C249.13 269.66 249.252 267.475 249.495 265.302C249.696 263.52 249.975 261.751 250.331 259.995C252.277 250.465 256.455 241.534 262.522 233.933C265.458 232.331 267.833 229.866 269.326 226.872C269.867 225.796 270.249 224.647 270.461 223.461C270.13 223.505 269.793 223.532 269.462 223.553C269.359 223.559 269.25 223.564 269.147 223.57L269.108 223.571C268.744 223.588 268.383 223.498 268.068 223.314C267.754 223.13 267.499 222.859 267.335 222.534C267.171 222.208 267.105 221.842 267.144 221.48C267.183 221.117 267.326 220.774 267.556 220.491C267.699 220.315 267.842 220.139 267.985 219.963C268.202 219.691 268.425 219.425 268.642 219.154C268.667 219.128 268.69 219.101 268.712 219.072C268.962 218.763 269.212 218.458 269.462 218.149C269.006 217.441 268.393 216.848 267.67 216.416C265.167 214.95 261.713 215.965 259.905 218.23C258.091 220.495 257.749 223.673 258.379 226.503C258.998 228.911 260.023 231.196 261.409 233.26C261.273 233.434 261.132 233.602 260.996 233.776C258.514 236.968 256.351 240.395 254.538 244.009C254.979 239.961 254.453 235.865 253.003 232.059C251.533 228.513 248.778 225.526 246.352 222.46C243.438 218.777 237.463 220.384 236.949 225.053C236.944 225.098 236.939 225.143 236.935 225.188C237.295 225.392 237.648 225.607 237.993 225.836C238.426 226.126 238.762 226.54 238.957 227.024C239.151 227.508 239.195 228.039 239.082 228.548C238.969 229.057 238.705 229.521 238.325 229.877C237.944 230.234 237.465 230.467 236.949 230.547L236.897 230.555C237.025 231.854 237.252 233.141 237.575 234.406C238.513 237.936 240.169 241.235 242.441 244.095C244.712 246.955 247.55 249.315 250.776 251.027C250.988 251.136 251.195 251.244 251.406 251.347C249.585 256.511 248.442 261.89 248.007 267.349C247.761 270.57 247.775 273.805 248.05 277.023L248.034 276.909C247.339 273.331 245.431 270.102 242.631 267.767C238.473 264.351 232.599 263.093 228.113 260.347C227.636 260.04 227.082 259.877 226.515 259.876C225.949 259.874 225.394 260.035 224.915 260.339C224.437 260.643 224.056 261.077 223.816 261.59C223.577 262.104 223.489 262.675 223.563 263.237C223.569 263.277 223.575 263.317 223.582 263.357C224.25 263.629 224.901 263.943 225.531 264.297C225.891 264.5 226.244 264.716 226.589 264.944C227.023 265.234 227.359 265.648 227.553 266.132C227.747 266.616 227.791 267.147 227.678 267.656C227.566 268.166 227.302 268.629 226.921 268.986C226.541 269.342 226.061 269.576 225.546 269.655L225.493 269.663C225.455 269.669 225.422 269.674 225.385 269.679C226.527 272.408 228.131 274.92 230.125 277.105C232.589 279.749 235.567 281.862 238.876 283.315C242.185 284.767 245.756 285.528 249.37 285.551H249.375C250.356 289.815 251.778 293.965 253.616 297.935H268.767C268.821 297.767 268.87 297.593 268.919 297.425C267.517 297.513 266.109 297.429 264.727 297.175C265.851 295.795 266.975 294.405 268.099 293.025C268.124 292.999 268.148 292.972 268.169 292.943C268.74 292.237 269.315 291.537 269.885 290.831L269.886 290.83C269.916 288.665 269.668 286.506 269.147 284.405L269.146 284.405Z" fill="#B4DFFE"/>
<path d="M210.804 297.836C210.761 297.836 210.717 297.835 210.673 297.834C209.565 297.771 208.523 297.282 207.766 296.47C207.008 295.658 206.593 294.585 206.606 293.474C206.606 286.716 201.78 282.774 196.997 281.865C192.215 280.957 186.279 282.853 183.802 289.141L181.55 294.797C179.603 296.74 176.964 297.831 174.214 297.831C171.463 297.831 168.825 296.74 166.877 294.797L166.744 294.663L166.827 294.494L206.606 213.083V211.088C206.551 210.473 206.552 209.854 206.607 209.239L206.606 4.19726C206.606 3.63523 206.719 3.07891 206.938 2.56132C207.157 2.04372 207.478 1.57539 207.881 1.18411C208.285 0.792836 208.762 0.486586 209.286 0.283521C209.81 0.0804569 210.37 -0.0152877 210.931 0.00198172C212.04 0.0653667 213.081 0.55398 213.839 1.36612C214.597 2.17826 215.012 3.25136 214.999 4.36206V209.263C215.054 209.878 215.053 210.497 214.998 211.112L214.999 213.082L254.861 294.663L254.727 294.797C252.78 296.74 250.142 297.831 247.391 297.831C244.641 297.831 242.002 296.74 240.055 294.797L239.996 294.707L237.803 289.141C235.326 282.854 229.391 280.958 224.607 281.865C219.825 282.774 214.999 286.716 214.999 293.474V293.639C214.999 294.752 214.557 295.819 213.77 296.606C212.984 297.393 211.917 297.836 210.804 297.836Z" fill="#DAEFFF"/>
<path d="M283.62 148.412H137.985C136.292 148.41 134.669 147.736 133.472 146.539C132.275 145.342 131.602 143.718 131.6 142.025V40.1765C131.601 38.4831 132.275 36.8596 133.472 35.6622C134.669 34.4648 136.292 33.7912 137.985 33.7894H283.62C285.313 33.7913 286.936 34.4649 288.133 35.6623C289.33 36.8597 290.004 38.4831 290.006 40.1765V142.025C290.004 143.718 289.33 145.341 288.133 146.539C286.936 147.736 285.313 148.41 283.62 148.412Z" fill="white"/>
<path d="M283.62 149.204H137.985C136.082 149.202 134.257 148.445 132.912 147.099C131.566 145.753 130.809 143.928 130.807 142.025V40.1764C130.809 38.2729 131.566 36.4481 132.912 35.1022C134.257 33.7563 136.082 32.9993 137.985 32.9972H283.62C285.523 32.9993 287.347 33.7564 288.693 35.1023C290.038 36.4482 290.795 38.273 290.797 40.1764V142.025C290.795 143.928 290.038 145.753 288.693 147.099C287.347 148.445 285.523 149.202 283.62 149.204ZM137.985 34.5817C136.502 34.5833 135.08 35.1733 134.031 36.2221C132.983 37.271 132.393 38.693 132.391 40.1764V142.025C132.393 143.508 132.983 144.93 134.032 145.979C135.08 147.028 136.502 147.618 137.985 147.619H283.62C285.103 147.618 286.525 147.028 287.573 145.979C288.622 144.93 289.211 143.508 289.213 142.025V40.1764C289.212 38.6931 288.622 37.271 287.573 36.2222C286.525 35.1733 285.103 34.5833 283.62 34.5817H137.985Z" fill="#B4DFFE"/>
<path d="M232.335 40.1573H189.27C186.54 40.1542 183.922 39.0679 181.991 37.1368C180.061 35.2056 178.975 32.5873 178.972 29.8562V29.669H242.634V29.8562C242.631 32.5873 241.545 35.2056 239.614 37.1368C237.683 39.0679 235.066 40.1542 232.335 40.1573Z" fill="#DAEFFF"/>
<path d="M232.522 154.78H189.457C186.727 154.777 184.109 153.69 182.178 151.759C180.248 149.828 179.162 147.21 179.159 144.479V144.291H242.821V144.479C242.818 147.21 241.732 149.828 239.801 151.759C237.87 153.69 235.253 154.777 232.522 154.78Z" fill="#DAEFFF"/>
<path d="M290.248 298.361C290.248 298.443 290.232 298.525 290.201 298.602C290.169 298.678 290.123 298.747 290.065 298.806C290.006 298.864 289.937 298.91 289.861 298.942C289.784 298.973 289.702 298.99 289.62 298.989H0.62837C0.461716 298.989 0.301902 298.923 0.18406 298.805C0.0662182 298.687 0 298.527 0 298.361C0 298.194 0.0662182 298.034 0.18406 297.916C0.301902 297.798 0.461716 297.732 0.62837 297.732H289.62C289.702 297.732 289.784 297.748 289.861 297.78C289.937 297.811 290.006 297.857 290.065 297.916C290.123 297.974 290.169 298.044 290.201 298.12C290.232 298.196 290.248 298.278 290.248 298.361Z" fill="#DAEFFF"/>
<path d="M97.3209 283.729H104.933L108.554 254.359L97.3193 254.36L97.3209 283.729Z" fill="#9E616A"/>
<path d="M94.7429 279.973L106.776 279.255V284.412L118.217 292.315C118.782 292.706 119.208 293.266 119.432 293.916C119.656 294.565 119.666 295.269 119.462 295.925C119.258 296.581 118.849 297.154 118.296 297.561C117.743 297.968 117.074 298.188 116.387 298.188H102.061L99.5914 293.086L98.6272 298.188H93.2256L94.7429 279.973Z" fill="#363636"/>
<path d="M71.4315 120.368L70.6859 123.923L70.0518 137.035L95.5266 133.585L97.483 118.402L94.7789 113.958L71.4315 120.368Z" fill="#9E616A"/>
<path d="M58.7955 283.729H66.4078L70.0291 254.359L58.7939 254.36L58.7955 283.729Z" fill="#9E616A"/>
<path d="M54.6658 231.841L54.6655 231.762L57.515 218.456L59.2721 211.832L54.388 173.048C53.2381 144.871 69.581 131.326 69.7096 131.192L70.064 130.824L96.2737 130.182C110.376 138.634 108.779 184.859 111.362 216.297C111.546 218.538 113.86 221.847 113.291 223.979C108.779 240.895 110.1 259.189 106.663 259.729L96.1223 259.583L90.6785 234.87L95.7035 216.021C93.4749 215.61 91.9347 204.712 91.9347 204.712C90.9636 203.558 87.6111 193.749 87.6111 193.749L83.141 166.595L75.9591 213.299L77.6887 224.256L76.2573 228.023L70.1277 259.126L70.0625 259.627L58.5062 258.473L54.6658 231.841Z" fill="#363636"/>
<path d="M56.218 279.973L68.2516 279.255V284.412L79.6922 292.315C80.2573 292.706 80.6829 293.266 80.9068 293.916C81.1308 294.565 81.1413 295.269 80.937 295.925C80.7326 296.581 80.324 297.154 79.7709 297.561C79.2177 297.968 78.549 298.188 77.8623 298.188H63.5358L61.0665 293.086L60.1023 298.188H54.7007L56.218 279.973Z" fill="#363636"/>
<path d="M92.4485 69.0895L98.8736 76.2305L106.591 90.7806L102.8 108.722L104.458 117.141L106.905 126.396C97.4746 131.614 86.2724 124.408 75.9812 121.207L65.8555 125.682L66.3909 113.364L66.6655 82.3274C66.676 81.1354 66.9314 79.9583 67.4158 78.8691C67.9001 77.7799 68.6031 76.8019 69.4811 75.9958C70.3591 75.1897 71.3934 74.5727 72.5197 74.1832C73.646 73.7936 74.8404 73.6398 76.0286 73.7312L82.8108 68.7325L92.4485 69.0895Z" fill="#4460FD"/>
<path d="M90.6487 65.3516C98.1311 65.3516 104.197 59.2843 104.197 51.7998C104.197 44.3154 98.1311 38.2481 90.6487 38.2481C83.1663 38.2481 77.1006 44.3154 77.1006 51.7998C77.1006 59.2843 83.1663 65.3516 90.6487 65.3516Z" fill="#9E616A"/>
<path d="M106.591 46.9092C106.352 48.237 100.649 48.8779 100.821 46.5155C99.7109 48.7396 98.0527 51.9674 100.165 55.6646C99.3375 56.566 98.8163 57.7059 98.6758 58.9215C98.5353 60.137 98.7827 61.3658 99.3825 62.4323C99.9835 63.4095 100.487 64.4435 100.886 65.5193C100.966 65.7805 101.024 66.0481 101.058 66.3193C101.092 66.5918 101.052 66.8685 100.942 67.1202C100.832 67.372 100.657 67.5896 100.434 67.7503C100.212 67.9109 99.9497 68.0086 99.6763 68.0332C99.4028 68.0578 99.1278 68.0084 98.88 67.8901C93.1347 65.0753 83.1157 65.5524 76.8302 67.2697C76.8721 66.0467 76.8554 64.8264 76.78 63.6089C76.5506 65.1314 75.9366 66.5702 74.9961 67.7891C73.9199 68.1075 72.8647 68.4384 71.8429 68.7651C71.6871 68.8156 71.5205 68.8229 71.3609 68.7862C71.2013 68.7495 71.0546 68.6702 70.9364 68.5568C70.8183 68.4433 70.7331 68.2999 70.6899 68.1419C70.6468 67.9838 70.6473 67.8171 70.6914 67.6593C70.8905 66.9363 70.9277 66.1783 70.8002 65.4393C70.5406 63.9063 69.7701 62.5198 69.2257 61.0664C68.6814 59.6129 68.3715 57.9417 69.0373 56.5385C70.0716 54.3604 72.9861 53.6943 74.2717 51.6545C75.7164 49.3633 74.5941 46.3768 74.8203 43.6751C75.1385 39.8551 78.2666 36.7513 81.7925 35.2518C87.8979 32.6548 95.5359 34.7579 100.113 39.5581C100.755 39.1245 101.504 38.8774 102.278 38.8441C103.052 38.8108 103.82 38.9927 104.497 39.3696C105.85 40.0943 106.821 40.4712 107.428 41.8828C107.96 43.1227 106.834 45.5772 106.591 46.9092Z" fill="#363636"/>
<path d="M100.772 206.272L68.8968 174.389C68.5267 174.018 68.3189 173.515 68.3188 172.991C68.3188 172.467 68.5267 171.964 68.8968 171.593L91.1822 149.302C91.5531 148.932 92.0557 148.724 92.5797 148.724C93.1037 148.724 93.6063 148.932 93.9773 149.302L125.852 181.185C126.222 181.556 126.43 182.059 126.43 182.583C126.43 183.107 126.222 183.61 125.852 183.981L103.567 206.272C103.196 206.643 102.693 206.851 102.169 206.851C101.645 206.851 101.143 206.643 100.772 206.272Z" fill="white"/>
<path d="M102.17 207.378C101.841 207.379 101.515 207.315 101.211 207.189C100.907 207.064 100.631 206.879 100.399 206.646L68.5238 174.763C68.0546 174.293 67.791 173.655 67.791 172.991C67.791 172.327 68.0546 171.69 68.5238 171.22L90.8092 148.929C91.2792 148.459 91.9161 148.196 92.5802 148.196C93.2442 148.196 93.8812 148.459 94.3511 148.929L126.226 180.812C126.695 181.282 126.959 181.919 126.959 182.583C126.959 183.247 126.695 183.884 126.226 184.354L103.94 206.646C103.708 206.879 103.432 207.064 103.128 207.189C102.824 207.315 102.499 207.379 102.17 207.378ZM92.58 149.252C92.3898 149.251 92.2014 149.288 92.0256 149.361C91.8499 149.434 91.6903 149.541 91.5562 149.675L69.2704 171.967C68.9993 172.239 68.8471 172.607 68.8471 172.991C68.8471 173.375 68.9993 173.744 69.2704 174.016L101.145 205.899C101.422 206.162 101.788 206.308 102.17 206.308C102.551 206.308 102.917 206.162 103.194 205.899L125.479 183.608C125.75 183.336 125.903 182.967 125.903 182.583C125.903 182.199 125.75 181.831 125.479 181.559L93.6041 149.675C93.4699 149.541 93.3103 149.434 93.1345 149.361C92.9587 149.288 92.7703 149.251 92.58 149.252Z" fill="#DAEFFF"/>
<path d="M88.7618 152.267C88.2282 151.584 87.8508 150.793 87.6562 149.948C87.4616 149.103 87.4546 148.226 87.6356 147.378C87.8166 146.531 88.1812 145.733 88.7037 145.041C89.2263 144.35 89.8941 143.781 90.6601 143.376L91.1616 90.128L101.111 94.6951L98.9227 146.193C99.5184 147.526 99.6048 149.03 99.1656 150.422C98.7264 151.814 97.792 152.996 96.5395 153.745C95.2871 154.494 93.8035 154.757 92.37 154.484C90.9365 154.212 89.6527 153.423 88.7618 152.267Z" fill="#9E616A"/>
<path d="M89.0298 76.6468C89.0298 76.6468 98.7084 71.9507 100.047 80.8108C101.385 89.671 106.891 112.731 106.891 112.731L90.1843 111.549L89.0298 76.6468Z" fill="#9E616A"/>
<path d="M88.7618 152.267C88.2282 151.584 87.8508 150.793 87.6562 149.948C87.4616 149.103 87.4546 148.226 87.6356 147.378C87.8166 146.531 88.1812 145.733 88.7037 145.041C89.2263 144.35 89.8941 143.781 90.6601 143.376L91.1616 90.128L101.111 94.6951L98.9227 146.193C99.5184 147.526 99.6048 149.03 99.1656 150.422C98.7264 151.814 97.792 152.996 96.5395 153.745C95.2871 154.494 93.8035 154.757 92.37 154.484C90.9365 154.212 89.6527 153.423 88.7618 152.267Z" fill="#9E616A"/>
<path d="M89.0298 76.6468C89.0298 76.6468 98.7084 71.9507 100.047 80.8108C101.385 89.671 106.891 112.731 106.891 112.731L90.1843 111.549L89.0298 76.6468Z" fill="#4460FD"/>
</g>
<defs>
<clipPath id="clip0_59_12044">
<rect width="290.798" height="300" fill="white"/>
</clipPath>
</defs>
</svg>
