<svg height="511pt" viewBox="0 -45 511.9983 511" width="511pt" xmlns="http://www.w3.org/2000/svg"><path d="m292.042969 410.777344 33.71875-17.421875c49.601562-25.628907 103.578125-38.902344 158.207031-38.902344v-343.957031c-54.628906 0-108.605469 13.273437-158.207031 38.90625l-33.71875 17.421875zm0 0" fill="#ff5d5d"/><path d="m220.003906 410.777344-33.71875-17.421875c-49.601562-25.628907-103.578125-38.902344-158.207031-38.902344v-343.957031c54.628906 0 108.605469 13.273437 158.207031 38.90625l33.71875 17.421875zm0 0" fill="#ff5d5d"/><path d="m220.003906 66.824219h71.992188v343.953125h-71.992188zm0 0" fill="#36d28f"/><g fill="#f7c29a"><path d="m455.828125 134.503906c-5.046875-8.746094-2.050781-19.929687 6.695313-24.980468l12.035156-6.949219c8.746094-5.050781 19.929687-2.054688 24.980468 6.691406 5.046876 8.746094 2.050782 19.929687-6.695312 24.980469l-12.035156 6.949218c-8.746094 5.050782-19.929688 2.054688-24.980469-6.691406zm0 0"/><path d="m455.828125 175.980469c-5.046875-8.746094-2.050781-19.929688 6.695313-24.976563l12.035156-6.949218c8.746094-5.050782 19.929687-2.054688 24.980468 6.691406 5.046876 8.746094 2.050782 19.929687-6.695312 24.980468l-12.035156 6.949219c-8.746094 5.046875-19.929688 2.050781-24.980469-6.695312zm0 0"/><path d="m455.828125 217.464844c-5.046875-8.746094-2.050781-19.929688 6.695313-24.976563l12.035156-6.949219c8.746094-5.050781 19.929687-2.054687 24.980468 6.691407 5.046876 8.746093 2.050782 19.929687-6.695312 24.980469l-12.035156 6.949218c-8.746094 5.050782-19.929688 2.054688-24.980469-6.695312zm0 0"/><path d="m455.828125 258.953125c-5.046875-8.746094-2.050781-19.929687 6.695313-24.980469l12.035156-6.949218c8.746094-5.050782 19.929687-2.054688 24.980468 6.691406 5.046876 8.746094 2.050782 19.929687-6.695312 24.980468l-12.035156 6.949219c-8.746094 5.050781-19.929688 2.054688-24.980469-6.691406zm0 0"/><path d="m56.171875 134.503906c5.046875-8.746094 2.050781-19.929687-6.695313-24.980468l-12.035156-6.949219c-8.746094-5.050781-19.929687-2.054688-24.980468 6.691406-5.050782 8.746094-2.054688 19.929687 6.691406 24.980469l12.039062 6.949218c8.746094 5.050782 19.929688 2.054688 24.980469-6.691406zm0 0"/><path d="m56.171875 175.980469c5.046875-8.746094 2.050781-19.929688-6.695313-24.976563l-12.035156-6.949218c-8.746094-5.050782-19.929687-2.054688-24.980468 6.691406-5.050782 8.746094-2.054688 19.929687 6.691406 24.980468l12.039062 6.949219c8.746094 5.046875 19.929688 2.050781 24.980469-6.695312zm0 0"/><path d="m56.171875 217.464844c5.046875-8.746094 2.050781-19.929688-6.695313-24.976563l-12.035156-6.949219c-8.746094-5.050781-19.929687-2.054687-24.980468 6.691407-5.050782 8.746093-2.054688 19.929687 6.691406 24.980469l12.039062 6.949218c8.746094 5.050782 19.929688 2.054688 24.980469-6.695312zm0 0"/><path d="m56.171875 258.953125c5.046875-8.746094 2.050781-19.929687-6.695313-24.980469l-12.035156-6.949218c-8.746094-5.050782-19.929687-2.054688-24.980468 6.691406-5.050782 8.746094-2.054688 19.929687 6.691406 24.980468l12.039062 6.949219c8.746094 5.050781 19.929688 2.054688 24.980469-6.691406zm0 0"/></g><path d="m113.753906 355.15625c-5.347656-1.355469-10.835937 1.871094-12.195312 7.21875-1.355469 5.347656 1.925781 10.796875 7.269531 12.164062.019531.003907.035156.007813.050781.011719.816406.203125 1.636719.300781 2.441406.300781 4.484376 0 8.59375-3.015624 9.730469-7.550781 1.347657-5.351562-1.949219-10.792969-7.296875-12.144531zm0 0"/><path d="m502.933594 222.117188c3.882812-3.585938 6.6875-8.191407 8.089844-13.421876 1.953124-7.296874.949218-14.917968-2.828126-21.464843-1.453124-2.515625-3.238281-4.722657-5.269531-6.601563 9.464844-8.773437 11.988281-23.246094 5.269531-34.882812-1.433593-2.488282-3.210937-4.707032-5.257812-6.605469 9.457031-8.773437 11.976562-23.238281 5.257812-34.871094-3.253906-5.640625-8.238281-9.894531-14.226562-12.214843v-81.558594c0-5.519532-4.476562-9.996094-10-9.996094-55.835938 0-112.128906 13.835938-162.796875 40.019531l-31.558594 16.304688h-67.179687l-31.558594-16.304688c-50.667969-26.183593-106.960938-40.019531-162.796875-40.019531-5.519531 0-9.996094 4.476562-9.996094 9.996094v81.539062c-6.011719 2.316406-11.015625 6.574219-14.28125 12.230469-3.7773435 6.542969-4.78125 14.167969-2.824219 21.464844 1.398438 5.222656 4.203126 9.828125 8.078126 13.414062-2.046876 1.898438-3.816407 4.117188-5.253907 6.601563-6.714843 11.632812-4.195312 26.101562 5.261719 34.875-2.046875 1.902344-3.824219 4.121094-5.261719 6.609375-3.7773435 6.542969-4.78125 14.167969-2.824219 21.464843 1.398438 5.226563 4.203126 9.832032 8.082032 13.414063-2.046875 1.902344-3.820313 4.121094-5.257813 6.609375-7.796875 13.503906-3.152343 30.835938 10.355469 38.636719l3.925781 2.265625v84.832031c0 5.519531 4.476563 10 9.996094 10 15.691406 0 31.542969 1.144531 47.113281 3.402344.488282.070312.972656.105469 1.449219.105469 4.886719 0 9.160156-3.585938 9.882813-8.5625.792968-5.464844-2.992188-10.539063-8.457032-11.332032-13.21875-1.917968-26.625-3.078125-39.988281-3.46875v-66.605468c.734375.058593 1.472656.097656 2.207031.097656 9.785156 0 19.308594-5.074219 24.542969-14.140625 6.722656-11.640625 4.195313-26.117188-5.277344-34.886719 2.03125-1.878906 3.824219-4.078125 5.277344-6.597656 6.722656-11.640625 4.195313-26.117188-5.277344-34.886719 2.03125-1.878906 3.824219-4.078125 5.277344-6.597656 3.777344-6.542969 4.78125-14.164063 2.828125-21.460938-1.402344-5.234375-4.210938-9.84375-8.097656-13.429687 2.027344-1.878906 3.820312-4.074219 5.269531-6.589844 7.800781-13.503906 3.15625-30.839844-10.351563-38.636719l-12.035156-6.949219c-1.40625-.8125-2.867187-1.488281-4.363281-2.042968v-71.21875c49.359375 1.546875 98.804687 14.476562 143.621094 37.632812l28.308593 14.628906v321.445313l-19.128906-9.886719c-14.585937-7.535156-29.746094-14.121094-45.066406-19.574218-5.199219-1.851563-10.917969.863281-12.769531 6.066406-1.855469 5.203125.863281 10.921875 6.066406 12.769531 14.472656 5.152344 28.800781 11.378906 42.589844 18.503906l33.71875 17.421875c1.441406.746094 3.015625 1.117188 4.589843 1.117188h71.988282c0-.003906 0-.003906 0-.003906.019531 0 .035156.003906.050781.003906 1.570313 0 3.144531-.371094 4.589844-1.117188l33.71875-17.421875c47.84375-24.722656 100.960937-37.789062 153.617187-37.789062 5.519532 0 10-4.476563 10-10v-84.855469l3.875-2.238281c13.507813-7.800781 18.148438-25.132813 10.351563-38.640625-1.453125-2.511719-3.238281-4.71875-5.265625-6.597656zm-455.421875-9.648438c-2 3.460938-6.136719 4.9375-9.789063 3.722656-.007812-.003906-.015625-.007812-.019531-.007812-.515625-.175782-1.023437-.398438-1.511719-.683594l-12.039062-6.949219c-1.914063-1.105469-3.289063-2.894531-3.859375-5.03125-.574219-2.136719-.277344-4.371093.828125-6.289062 1.53125-2.65625 4.324218-4.140625 7.191406-4.140625 1.402344 0 2.828125.355468 4.128906 1.105468l12.035156 6.949219c3.957032 2.285157 5.320313 7.363281 3.035157 11.324219zm0-41.488281c-2.285157 3.960937-7.363281 5.316406-11.320313 3.035156l-12.035156-6.949219c-3.960938-2.285156-5.320312-7.363281-3.035156-11.320312 1.105468-1.917969 2.894531-3.289063 5.03125-3.859375.714844-.191407 1.4375-.289063 2.160156-.289063 1.433594 0 2.851562.378906 4.128906 1.117188l12.035156 6.945312c3.957032 2.285156 5.320313 7.363282 3.035157 11.320313zm0 82.972656c-2.285157 3.957031-7.363281 5.316406-11.320313 3.03125l-12.035156-6.949219c-1.917969-1.105468-3.289062-2.894531-3.863281-5.03125-.574219-2.136718-.277344-4.371094.828125-6.289062 1.53125-2.65625 4.324218-4.140625 7.191406-4.140625 1.402344 0 2.828125.355469 4.128906 1.105469l12.035156 6.949218c3.957032 2.285156 5.320313 7.363282 3.035157 11.324219zm-3.035157-135.773437c3.957032 2.285156 5.316407 7.363281 3.035157 11.324218-1.988281 3.441406-6.089844 4.917969-9.726563 3.738282-.113281-.039063-.226562-.082032-.335937-.121094-.429688-.160156-.851563-.347656-1.261719-.585938l-12.035156-6.949218c-1.917969-1.105469-3.289063-2.894532-3.859375-5.03125-.574219-2.136719-.28125-4.371094.828125-6.289063 1.105468-1.917969 2.894531-3.289063 5.03125-3.859375.714844-.191406 1.4375-.285156 2.15625-.285156 1.4375 0 2.855468.375 4.132812 1.113281zm443.371094 131.855468-12.039062 6.949219c-3.957032 2.289063-9.035156.925781-11.320313-3.03125-1.105469-1.917969-1.398437-4.152344-.828125-6.289063.574219-2.140624 1.945313-3.925781 3.859375-5.03125l12.039063-6.949218c1.300781-.753906 2.726562-1.109375 4.128906-1.109375 2.867188 0 5.65625 1.484375 7.191406 4.140625 2.285156 3.957031.925782 9.039062-3.03125 11.320312zm-8.289062-138.800781c1.277344-.738281 2.695312-1.117187 4.128906-1.117187.722656 0 1.445312.097656 2.160156.289062 2.136719.570312 3.925782 1.941406 5.03125 3.859375 2.285156 3.957031.925782 9.035156-3.03125 11.320313l-12.039062 6.949218c-.394532.226563-.804688.414063-1.222656.570313-.121094.042969-.238282.089843-.359376.132812-1.511718.496094-3.132812.546875-4.707031.125-2.136719-.574219-3.925781-1.945312-5.03125-3.859375-1.105469-1.917968-1.398437-4.152344-.828125-6.292968.574219-2.136719 1.945313-3.921876 3.859375-5.03125zm-10.039063 105.09375c-2.136719-.574219-3.925781-1.945313-5.03125-3.859375-2.285156-3.960938-.925781-9.039062 3.03125-11.320312l12.039063-6.949219c1.300781-.753907 2.726562-1.109375 4.128906-1.109375 2.867188 0 5.65625 1.484375 7.191406 4.140625 2.285156 3.960937.925782 9.039062-3.03125 11.320312l-12.039062 6.949219c-1.914063 1.109375-4.148438 1.402344-6.289063.828125zm-5.03125-45.34375c-1.105469-1.917969-1.398437-4.152344-.828125-6.292969.574219-2.136718 1.945313-3.921875 3.859375-5.03125l12.039063-6.945312c1.304687-.753906 2.726562-1.109375 4.128906-1.109375 2.867188 0 5.660156 1.484375 7.191406 4.140625 2.285156 3.957031.925782 9.039062-3.03125 11.320312l-12.039062 6.949219c-3.957032 2.289063-9.035156.925781-11.320313-3.03125zm-182.492187 229.796875h-51.992188v-323.957031h51.992188zm39.175781-16.308594-19.128906 9.886719v-321.445313l27.972656-14.457031v164.347657c0 5.519531 4.476563 9.996093 9.996094 9.996093 5.523437 0 10-4.476562 10-9.996093v-173.886719c39.410156-17.273438 81.71875-26.945313 123.960937-28.265625v71.199218c-1.511718.558594-2.988281 1.242188-4.410156 2.0625l-12.039062 6.949219c-6.542969 3.777344-11.222657 9.875-13.179688 17.175781-1.953125 7.296876-.949219 14.917969 2.828125 21.460938 1.433594 2.488281 3.207031 4.703125 5.25 6.605469-3.875 3.582031-6.675781 8.1875-8.078125 13.410156-1.953125 7.300781-.949219 14.921875 2.828125 21.464844 1.433594 2.488281 3.207031 4.703125 5.253906 6.605469-3.878906 3.585937-6.679687 8.191406-8.082031 13.414062-1.957031 7.300781-.953125 14.921875 2.824219 21.464844 1.4375 2.488281 3.210937 4.703125 5.257812 6.605468-3.878906 3.585938-6.683593 8.191407-8.082031 13.417969-1.957031 7.296875-.953125 14.917969 2.824219 21.460938 3.777343 6.542969 9.878906 11.222656 17.175781 13.179687 2.4375.652344 4.910156.976563 7.367188.976563.753906 0 1.507812-.042969 2.257812-.101563v66.597656c-52.53125 1.546876-105.152344 15.253907-152.796875 39.871094zm0 0"/><path d="m340.011719 250.632812c-2.628907 0-5.207031 1.070313-7.066407 2.929688-1.859374 1.859375-2.929687 4.4375-2.929687 7.070312 0 2.628907 1.066406 5.207032 2.929687 7.066407 1.859376 1.859375 4.4375 2.929687 7.066407 2.929687 2.632812 0 5.210937-1.070312 7.070312-2.929687s2.929688-4.4375 2.929688-7.066407c0-2.632812-1.070313-5.210937-2.929688-7.070312s-4.441406-2.929688-7.070312-2.929688zm0 0"/></svg>