<svg id="Capa_1" enable-background="new 0 0 512 512" height="512" viewBox="0 0 512 512" width="512" xmlns="http://www.w3.org/2000/svg"><g><g><path d="m502 207.37h-492v-107.556c0-15.929 12.913-28.842 28.842-28.842h434.315c15.929 0 28.842 12.913 28.842 28.842v107.556z" fill="#868eaf"/><path d="m473.158 441.028h-434.316c-15.929 0-28.842-12.913-28.842-28.842v-204.816h492v204.816c0 15.929-12.913 28.842-28.842 28.842z" fill="#868eaf"/><path d="m259 207.37 34.571-68.785-33.983-67.613h-120.528l33.982 67.613-34.571 68.785z" fill="#f9f5f3"/><path d="m370.543 207.37 34.571-68.785-33.982-67.613h-111.544l33.983 67.613-34.571 68.785z" fill="#868eaf"/><g fill="#f9f5f3"><path d="m502 99.814v38.771h-96.886l-33.982-67.614h102.026c15.929.001 28.842 12.914 28.842 28.843z"/><path d="m502 207.37v-68.785h-96.886l-34.571 68.785z"/><circle cx="39.003" cy="137.782" r="29.003"/></g></g><g><g><path d="m484.696 62.721c-3.646-1.137-7.522-1.749-11.538-1.749h-434.316c-21.417 0-38.842 17.424-38.842 38.842v312.372c0 21.418 17.425 38.842 38.842 38.842h179.039c5.522 0 10-4.477 10-10s-4.478-10-10-10h-179.039c-10.39 0-18.842-8.453-18.842-18.842v-194.816h472v194.816c0 10.39-8.452 18.842-18.842 18.842h-167.318c-5.522 0-10 4.477-10 10s4.478 10 10 10h167.318c21.417 0 38.842-17.424 38.842-38.842v-312.372c0-17.402-11.503-32.168-27.304-37.093zm-11.538 18.251c10.39 0 18.842 8.453 18.842 18.842v28.771l-80.72-.001-23.93-47.613h85.808zm-108.192 0 23.93 47.613-89.16-.001-23.929-47.612zm-111.543 0 23.928 47.612-98.145-.001-23.929-47.611zm-214.581 0h94.052l23.929 47.611-79.922-.001c-4.147-17.08-19.56-29.803-37.898-29.803-6.896 0-13.376 1.807-19.003 4.96v-3.925c0-10.39 8.452-18.842 18.842-18.842zm.161 75.813c-10.479 0-19.003-8.525-19.003-19.003s8.524-19.003 19.003-19.003 19.004 8.525 19.004 19.003-8.526 19.003-19.004 19.003zm-19.003 15.04c5.627 3.154 12.107 4.96 19.003 4.96 17.76 0 32.774-11.936 37.471-28.203l80.351.001-24.519 48.787h-112.306zm159.209-23.242 98.144.001-24.519 48.786h-98.145zm120.528.001 89.16.001-24.519 48.786h-89.16zm87.025 48.786 24.519-48.785h80.719v48.785z"/><path d="m137.063 364.698h246.401c5.522 0 10-4.477 10-10s-4.478-10-10-10h-246.401c-5.522 0-10 4.477-10 10s4.478 10 10 10z"/><path d="m137.063 301.097h246.401c5.522 0 10-4.477 10-10s-4.478-10-10-10h-246.401c-5.522 0-10 4.477-10 10s4.478 10 10 10z"/><path d="m271.5 437.2c-1.638-3.933-5.72-6.461-9.972-6.144-4.354.324-8.044 3.529-9.014 7.778-1.995 8.741 8.175 15.475 15.498 10.366 3.807-2.657 5.243-7.716 3.488-12z"/></g></g></g></svg>