<?xml version="1.0" encoding="iso-8859-1"?>
<!-- Generator: Adobe Illustrator 19.0.0, SVG Export Plug-In . SVG Version: 6.00 Build 0)  -->
<svg version="1.1" id="Layer_1" xmlns="http://www.w3.org/2000/svg" xmlns:xlink="http://www.w3.org/1999/xlink" x="0px" y="0px"
	 viewBox="0 0 511.999 511.999" style="enable-background:new 0 0 511.999 511.999;" xml:space="preserve">
<path style="fill:#637189;" d="M144.696,200.357h-11.13c-67.618,0-122.435,54.816-122.435,122.435s54.816,122.435,122.435,122.435
	c35.355,0,67.203-14.992,89.552-38.957h65.764c22.35,23.965,54.197,38.957,89.552,38.957c67.618,0,122.435-54.816,122.435-122.435
	s-54.816-122.435-122.435-122.435H189.217"/>
<g>
	<circle style="fill:#2FDDD4;" cx="378.435" cy="267.141" r="22.261"/>
	<circle style="fill:#2FDDD4;" cx="445.217" cy="322.793" r="22.261"/>
	<circle style="fill:#2FDDD4;" cx="311.652" cy="322.793" r="22.261"/>
	<circle style="fill:#2FDDD4;" cx="378.435" cy="378.445" r="22.261"/>
	<polygon style="fill:#2FDDD4;" points="200.904,299.14 157.217,299.14 157.217,255.453 109.913,255.453 109.913,299.14 
		66.226,299.14 66.226,346.444 109.913,346.444 109.913,390.131 157.217,390.131 157.217,346.444 200.904,346.444 	"/>
</g>
<path d="M378.435,189.227H267.13v-87.188c0-6.146-4.983-11.13-11.13-11.13c-6.147,0-11.13,4.984-11.13,11.13v87.188h-55.652
	c-6.147,0-11.13,4.984-11.13,11.13s4.983,11.13,11.13,11.13h189.217c61.373,0,111.304,49.93,111.304,111.304
	s-49.931,111.304-111.304,111.304c-30.748,0-60.422-12.909-81.412-35.417c-2.106-2.257-5.053-3.539-8.14-3.539h-65.765
	c-3.086,0-6.035,1.281-8.14,3.539c-20.99,22.509-50.665,35.417-81.412,35.417c-61.373,0-111.304-49.93-111.304-111.304
	s49.931-111.304,111.304-111.304h11.13c6.147,0,11.13-4.984,11.13-11.13s-4.983-11.13-11.13-11.13h-11.13
	C59.917,189.227,0,249.144,0,322.792s59.917,133.565,133.565,133.565c35.255,0,69.333-14.141,94.266-38.957h56.337
	c24.933,24.815,59.011,38.957,94.266,38.957c73.648,0,133.565-59.917,133.565-133.565S452.083,189.227,378.435,189.227z"/>
<path d="M98.783,255.453v32.557H66.226c-6.147,0-11.13,4.984-11.13,11.13v47.304c0,6.146,4.983,11.13,11.13,11.13h32.557v32.557
	c0,6.146,4.983,11.13,11.13,11.13h47.304c6.147,0,11.13-4.984,11.13-11.13v-32.557h32.557c6.147,0,11.13-4.984,11.13-11.13V299.14
	c0-6.146-4.983-11.13-11.13-11.13h-32.557v-32.557c0-6.146-4.983-11.13-11.13-11.13h-47.304
	C103.766,244.322,98.783,249.307,98.783,255.453z M121.043,299.14v-32.557h25.043v32.557c0,6.146,4.983,11.13,11.13,11.13h32.557
	v25.043h-32.557c-6.147,0-11.13,4.984-11.13,11.13v32.557h-25.043v-32.557c0-6.146-4.983-11.13-11.13-11.13H77.356V310.27h32.557
	C116.06,310.27,121.043,305.287,121.043,299.14z"/>
<path d="M378.435,233.749c-18.412,0-33.391,14.979-33.391,33.391s14.979,33.391,33.391,33.391s33.391-14.979,33.391-33.391
	S396.847,233.749,378.435,233.749z M378.435,278.27c-6.137,0-11.13-4.993-11.13-11.13s4.993-11.13,11.13-11.13
	s11.13,4.993,11.13,11.13S384.572,278.27,378.435,278.27z"/>
<path d="M445.217,356.183c18.412,0,33.391-14.979,33.391-33.391s-14.979-33.391-33.391-33.391s-33.391,14.979-33.391,33.391
	S426.805,356.183,445.217,356.183z M445.217,311.662c6.137,0,11.13,4.993,11.13,11.13s-4.993,11.13-11.13,11.13
	s-11.13-4.993-11.13-11.13S439.08,311.662,445.217,311.662z"/>
<path d="M311.652,289.401c-18.412,0-33.391,14.979-33.391,33.391s14.979,33.391,33.391,33.391s33.391-14.979,33.391-33.391
	S330.064,289.401,311.652,289.401z M311.652,333.922c-6.137,0-11.13-4.993-11.13-11.13s4.993-11.13,11.13-11.13
	s11.13,4.993,11.13,11.13S317.789,333.922,311.652,333.922z"/>
<path d="M378.435,411.835c18.412,0,33.391-14.979,33.391-33.391s-14.979-33.391-33.391-33.391s-33.391,14.979-33.391,33.391
	S360.023,411.835,378.435,411.835z M378.435,367.314c6.137,0,11.13,4.993,11.13,11.13s-4.993,11.13-11.13,11.13
	s-11.13-4.993-11.13-11.13S372.297,367.314,378.435,367.314z"/>
<path d="M245.727,71.022c0.278,0.668,0.623,1.313,1.024,1.924c0.401,0.601,0.868,1.181,1.38,1.693
	c0.512,0.512,1.08,0.979,1.692,1.38c0.601,0.4,1.247,0.746,1.926,1.024c0.668,0.278,1.369,0.489,2.081,0.633
	c0.712,0.146,1.447,0.223,2.17,0.223s1.458-0.077,2.17-0.223c0.712-0.145,1.414-0.355,2.081-0.633
	c0.679-0.278,1.325-0.624,1.926-1.024c0.612-0.401,1.18-0.868,1.692-1.38c0.512-0.512,0.979-1.091,1.38-1.693
	c0.401-0.612,0.746-1.258,1.024-1.924s0.501-1.369,0.634-2.081c0.156-0.712,0.223-1.447,0.223-2.17c0-0.722-0.067-1.458-0.223-2.182
	c-0.134-0.712-0.356-1.414-0.634-2.081s-0.623-1.313-1.024-1.924c-0.401-0.601-0.868-1.169-1.38-1.693
	c-2.593-2.581-6.433-3.762-10.04-3.037c-0.712,0.145-1.414,0.356-2.081,0.634c-0.679,0.278-1.325,0.623-1.926,1.024
	c-0.612,0.411-1.18,0.867-1.692,1.379c-0.512,0.524-0.979,1.091-1.38,1.693c-0.401,0.612-0.746,1.258-1.024,1.924
	c-0.278,0.669-0.49,1.369-0.634,2.081c-0.145,0.723-0.223,1.459-0.223,2.182c0,0.723,0.078,1.459,0.223,2.17
	C245.237,69.653,245.448,70.355,245.727,71.022z"/>
<g>
</g>
<g>
</g>
<g>
</g>
<g>
</g>
<g>
</g>
<g>
</g>
<g>
</g>
<g>
</g>
<g>
</g>
<g>
</g>
<g>
</g>
<g>
</g>
<g>
</g>
<g>
</g>
<g>
</g>
</svg>
