<svg id="Capa_1" enable-background="new 0 0 512 512" height="512" viewBox="0 0 512 512" width="512" xmlns="http://www.w3.org/2000/svg"><g><g><circle cx="256" cy="256" fill="#bedaff" r="246"/><ellipse cx="256" cy="256" fill="#80b4ff" rx="92.599" ry="246"/></g><g><g><path d="m437.02 74.981c-48.353-48.353-112.64-74.981-181.02-74.981-46.891 0-92.758 12.795-132.644 37.003-4.721 2.866-6.226 9.016-3.36 13.737 2.865 4.721 9.014 6.225 13.737 3.36 23.901-14.507 50.139-24.561 77.454-29.823-11.242 13.12-21.403 31.35-30.023 54.251-6.804 18.076-12.443 38.39-16.824 60.296-66.863 11.123-110.242 32.816-134.239 48.396 8.486-27.973 22.23-54.212 40.904-77.755 3.432-4.327 2.707-10.617-1.62-14.049-4.326-3.432-10.617-2.708-14.049 1.62-36.201 45.639-55.336 100.608-55.336 158.964 0 68.38 26.628 132.667 74.981 181.019 48.352 48.353 112.639 74.981 181.019 74.981s132.667-26.628 181.02-74.981c48.351-48.352 74.98-112.639 74.98-181.019s-26.629-132.667-74.98-181.019zm44.836 112.186c-23.998-15.602-67.326-37.261-134.2-48.36-4.38-21.899-10.018-42.207-16.82-60.278-8.631-22.929-18.806-41.176-30.064-54.299 45.981 8.783 88.276 31.063 122.105 64.893 27.838 27.838 47.864 61.406 58.979 98.044zm-281.975-101.592c15.687-41.674 36.141-65.575 56.119-65.575s40.432 23.901 56.118 65.575c5.712 15.175 10.561 32.053 14.491 50.204-21.377-2.62-44.868-4.16-70.621-4.16-25.739 0-49.225 1.544-70.601 4.172 3.932-18.156 8.781-35.038 14.494-50.216zm138.718 170.425c0 23.699-1.273 46.853-3.724 68.919-22.901-3.937-49.037-6.384-78.677-6.384-29.807 0-56.073 2.474-79.066 6.45-2.456-22.085-3.731-45.262-3.731-68.985 0-34.928 2.76-68.675 7.995-99.487 22.132-3.032 46.959-4.895 74.593-4.895 27.643 0 52.477 1.865 74.615 4.898 5.235 30.81 7.995 64.557 7.995 99.484zm-82.599 236c-19.978 0-40.432-23.901-56.119-65.575-8.884-23.6-15.685-51.31-20.172-81.546 22.101-3.896 47.511-6.345 76.488-6.345 28.954 0 54.26 2.492 76.095 6.328-4.487 30.243-11.289 57.958-20.175 81.563-15.685 41.674-36.139 65.575-56.117 65.575zm-232.877-274.692c5.594-4.938 22.412-18.471 52.255-31.858 19.902-8.927 48.14-18.84 85.221-25.617-4.722 30.114-7.198 62.656-7.198 96.166 0 25.049 1.383 49.557 4.054 72.914-56.757 12.908-90.194 34.682-105.09 46.533-21.1-35.829-32.365-76.769-32.365-119.446 0-13.11 1.056-26.032 3.123-38.692zm40.19 175.04c11.743-9.599 42.359-30.715 96.789-43.457 4.705 31.256 11.805 59.988 21.062 84.58 8.631 22.929 18.807 41.175 30.065 54.299-45.98-8.783-88.276-31.063-122.105-64.893-9.539-9.538-18.152-19.753-25.811-30.529zm359.564 30.529c-33.83 33.83-76.125 56.111-122.105 64.893 11.258-13.123 21.433-31.37 30.064-54.299 9.26-24.601 16.362-53.347 21.067-84.618 24.062 5.599 42.984 12.68 57.004 19.164 19.986 9.244 33.034 18.557 39.917 24.142-7.693 10.847-16.353 21.124-25.947 30.718zm36.883-47.643c-15.061-11.925-48.551-33.587-105.206-46.408 2.664-23.331 4.044-47.809 4.044-72.826 0-33.509-2.476-66.049-7.197-96.163 37.094 6.781 65.339 16.7 85.245 25.633 29.795 13.371 46.593 26.88 52.199 31.828 2.08 12.674 3.155 25.605 3.155 38.702 0 42.592-11.221 83.454-32.24 119.234z"/><path d="m84.48 74.95c2.066 5.045 8.036 7.491 13.06 5.41 5.038-2.086 7.481-8.029 5.4-13.06-2.083-5.036-8.017-7.489-13.05-5.41-5.029 2.077-7.503 8.036-5.41 13.06z"/></g></g></g></svg>