<svg width="32" height="32" viewBox="0 0 32 32" fill="none" xmlns="http://www.w3.org/2000/svg">
<g id="Heart">
<path id="Vector" opacity="0.2" d="M16 28C16 28 3 21 3 12.75C3 10.9598 3.71116 9.2429 4.97703 7.97703C6.2429 6.71116 7.95979 6 9.75 6C12.5737 6 14.9925 7.53875 16 10C17.0075 7.53875 19.4263 6 22.25 6C24.0402 6 25.7571 6.71116 27.023 7.97703C28.2888 9.2429 29 10.9598 29 12.75C29 21 16 28 16 28Z" fill="#FDD4DC"/>
<path id="Vector_2" d="M16 28C16 28 3 21 3 12.75C3 10.9598 3.71116 9.2429 4.97703 7.97703C6.2429 6.71116 7.95979 6 9.75 6C12.5737 6 14.9925 7.53875 16 10C17.0075 7.53875 19.4263 6 22.25 6C24.0402 6 25.7571 6.71116 27.023 7.97703C28.2888 9.2429 29 10.9598 29 12.75C29 21 16 28 16 28Z" fill="#FDD4DC" stroke="#1B2665" stroke-width="2" stroke-linecap="round" stroke-linejoin="round"/>
</g>
</svg>
