<svg width="290" height="216" viewBox="0 0 290 216" fill="none" xmlns="http://www.w3.org/2000/svg">
<g filter="url(#filter0_dd_1217_4378)">
<rect x="41" y="21.0002" width="208" height="134" rx="24" fill="url(#paint0_linear_1217_4378)"/>
<rect x="40.5" y="20.5002" width="209" height="135" rx="24.5" stroke="#D6DCE5"/>
<path d="M44 44C44 32.9543 52.9543 24 64 24H173C208.346 24 237 52.6538 237 88C237 123.346 208.346 152 173 152H64C52.9543 152 44 143.046 44 132V44Z" fill="white"/>
<path d="M106.846 88.0817C106.846 95.9509 113.026 102.051 120.975 102.051C123.224 102.051 125.147 101.608 127.521 100.492V94.3463C125.434 96.4331 123.585 97.2765 121.217 97.2765C115.958 97.2765 112.226 93.464 112.226 88.0427C112.226 82.9047 116.079 78.8501 120.975 78.8501C123.466 78.8501 125.352 79.7367 127.521 81.8603V75.7167C125.231 74.5555 123.345 74.0732 121.098 74.0732C113.188 74.0732 106.846 80.299 106.846 88.0817Z" fill="#251F1F"/>
<path d="M93.4447 81.5813C93.4447 83.0258 94.3659 83.7913 97.4993 84.9504C103.44 87.1237 105.2 89.0483 105.2 93.3019C105.2 98.4831 101.392 102.09 95.9661 102.09C91.9937 102.09 89.1046 100.527 86.6978 96.9953L90.0712 93.7473C91.2736 96.072 93.2803 97.3175 95.7693 97.3175C98.1005 97.3175 99.824 95.7108 99.824 93.5419C99.824 92.4174 99.3006 91.4508 98.2583 90.7718C97.7329 90.4496 96.6927 89.9673 94.6492 89.2472C89.7447 87.4827 88.0623 85.5948 88.0623 81.9057C88.0623 77.5245 91.6758 74.2354 96.4116 74.2354C99.3461 74.2354 102.032 75.2388 104.279 77.2045L101.545 80.7812C100.185 79.2567 98.9006 78.6123 97.335 78.6123C95.0838 78.6123 93.4447 79.8946 93.4447 81.5813Z" fill="#251F1F"/>
<path fill-rule="evenodd" clip-rule="evenodd" d="M62.7377 74.6788H55.0718V101.448H62.6966C66.7491 101.448 69.6792 100.492 72.2482 98.3577C75.3016 95.8298 77.1073 92.0196 77.1073 88.0817C77.1073 80.1822 71.2038 74.6788 62.7377 74.6788ZM68.8359 94.7897C67.1946 96.2688 65.0645 96.9154 61.6911 96.9154H60.2898V79.2156H61.6911C65.0645 79.2156 67.1102 79.8168 68.8359 81.3802C70.6437 82.987 71.7271 85.4781 71.7271 88.0428C71.7271 90.6118 70.6437 93.183 68.8359 94.7897Z" fill="#251F1F"/>
<path d="M84.7322 74.6788H79.5098V101.448H84.7322V74.6788Z" fill="#251F1F"/>
<path d="M161.783 74.6788L168.923 92.6575L176.155 74.6788H181.814L170.249 102.136H167.44L156.081 74.6788H161.783Z" fill="#251F1F"/>
<path d="M184.175 101.448H198.984V96.9154H189.393V89.6906H198.629V85.1559H189.393V79.2156H198.984V74.6788H184.175V101.448Z" fill="#251F1F"/>
<path fill-rule="evenodd" clip-rule="evenodd" d="M210.183 74.6788C216.206 74.6788 219.661 77.57 219.661 82.5804C219.661 86.6804 217.492 89.3705 213.559 90.1707L221.986 101.448H215.566L208.339 90.694H207.655V101.448H202.442V74.6788H210.183ZM207.655 87.0026H209.184C212.519 87.0026 214.285 85.5538 214.285 82.8637C214.285 80.2579 212.519 78.8934 209.264 78.8934H207.655V87.0026Z" fill="#251F1F"/>
<path fill-rule="evenodd" clip-rule="evenodd" d="M223.822 76.0822C223.822 75.6108 223.495 75.3535 222.927 75.3535H222.17V77.7149H222.732V76.8002L223.392 77.7149H224.081L223.305 76.7418C223.636 76.651 223.822 76.4088 223.822 76.0822ZM222.827 76.4044H222.732V75.786H222.834C223.113 75.786 223.258 75.8876 223.258 76.0909C223.258 76.2985 223.11 76.4044 222.827 76.4044Z" fill="#251F1F"/>
<path fill-rule="evenodd" clip-rule="evenodd" d="M220.983 76.5298C220.983 75.3858 221.895 74.4711 223.039 74.4711C224.155 74.4711 225.072 75.4031 225.072 76.5298C225.072 77.6629 224.155 78.5884 223.039 78.5884C221.904 78.5884 220.983 77.6715 220.983 76.5298ZM221.391 76.5319C221.391 77.4704 222.129 78.2208 223.03 78.2208C223.93 78.2208 224.661 77.4618 224.661 76.5319C224.661 75.6107 223.93 74.8409 223.03 74.8409C222.122 74.8409 221.391 75.5934 221.391 76.5319Z" fill="#251F1F"/>
<g filter="url(#filter1_i_1217_4378)">
<path d="M143.348 102.261C135.524 102.261 129.179 95.9164 129.179 88.0926V88.0734C129.179 84.1807 130.755 80.6389 133.305 78.0894C133.305 78.0697 133.325 78.0697 133.325 78.0505C133.344 78.0505 133.344 78.0308 133.364 78.0308C135.913 75.4813 139.455 73.905 143.348 73.905H143.367C151.191 73.905 157.536 80.2496 157.536 88.0734V88.0926C157.536 91.9853 155.959 95.508 153.409 98.0771C153.409 98.0964 153.39 98.0964 153.39 98.1161C153.371 98.1161 153.371 98.1353 153.351 98.1353C150.782 100.685 147.26 102.261 143.367 102.261H143.348Z" fill="url(#paint1_linear_1217_4378)"/>
</g>
</g>
<defs>
<filter id="filter0_dd_1217_4378" x="0" y="0.000244141" width="290" height="216" filterUnits="userSpaceOnUse" color-interpolation-filters="sRGB">
<feFlood flood-opacity="0" result="BackgroundImageFix"/>
<feColorMatrix in="SourceAlpha" type="matrix" values="0 0 0 0 0 0 0 0 0 0 0 0 0 0 0 0 0 0 127 0" result="hardAlpha"/>
<feOffset dy="2"/>
<feGaussianBlur stdDeviation="10"/>
<feColorMatrix type="matrix" values="0 0 0 0 0.717647 0 0 0 0 0.717647 0 0 0 0 0.717647 0 0 0 0.08 0"/>
<feBlend mode="normal" in2="BackgroundImageFix" result="effect1_dropShadow_1217_4378"/>
<feColorMatrix in="SourceAlpha" type="matrix" values="0 0 0 0 0 0 0 0 0 0 0 0 0 0 0 0 0 0 127 0" result="hardAlpha"/>
<feOffset dy="20"/>
<feGaussianBlur stdDeviation="20"/>
<feColorMatrix type="matrix" values="0 0 0 0 0.717647 0 0 0 0 0.717647 0 0 0 0 0.717647 0 0 0 0.08 0"/>
<feBlend mode="normal" in2="effect1_dropShadow_1217_4378" result="effect2_dropShadow_1217_4378"/>
<feBlend mode="normal" in="SourceGraphic" in2="effect2_dropShadow_1217_4378" result="shape"/>
</filter>
<filter id="filter1_i_1217_4378" x="129.179" y="73.905" width="29.3944" height="29.9129" filterUnits="userSpaceOnUse" color-interpolation-filters="sRGB">
<feFlood flood-opacity="0" result="BackgroundImageFix"/>
<feBlend mode="normal" in="SourceGraphic" in2="BackgroundImageFix" result="shape"/>
<feColorMatrix in="SourceAlpha" type="matrix" values="0 0 0 0 0 0 0 0 0 0 0 0 0 0 0 0 0 0 127 0" result="hardAlpha"/>
<feOffset dx="1.03798" dy="1.55697"/>
<feGaussianBlur stdDeviation="1.03798"/>
<feComposite in2="hardAlpha" operator="arithmetic" k2="-1" k3="1"/>
<feColorMatrix type="matrix" values="0 0 0 0 0 0 0 0 0 0 0 0 0 0 0 0 0 0 0.35 0"/>
<feBlend mode="normal" in2="shape" result="effect1_innerShadow_1217_4378"/>
</filter>
<linearGradient id="paint0_linear_1217_4378" x1="106.438" y1="21.0002" x2="186.634" y2="156.712" gradientUnits="userSpaceOnUse">
<stop stop-color="#E05026"/>
<stop offset="1" stop-color="#F9A020"/>
</linearGradient>
<linearGradient id="paint1_linear_1217_4378" x1="135.926" y1="73.905" x2="159.226" y2="93.621" gradientUnits="userSpaceOnUse">
<stop stop-color="#EF3823"/>
<stop offset="0.489583" stop-color="#F04D22"/>
<stop offset="1" stop-color="#F7911D"/>
</linearGradient>
</defs>
</svg>
