<svg width="49" height="49" viewBox="0 0 49 49" fill="none" xmlns="http://www.w3.org/2000/svg">
<path opacity="0.2" d="M26.0312 22.9687L21.4375 27.5625V12.3495L12.6979 20.9896C12.4113 21.2765 12.2502 21.6654 12.25 22.071V36.75H26.9289C27.3345 36.7498 27.7234 36.5887 28.0104 36.3021L41.2672 22.8921L26.0312 22.9687Z" fill="#4460FD"/>
<path d="M35.2188 13.7812L6.125 42.875" stroke="#4460FD" stroke-width="2" stroke-linecap="round" stroke-linejoin="round"/>
<path d="M28.0104 36.3022C27.7234 36.5888 27.3345 36.7499 26.9289 36.7501H12.25V22.0711C12.2502 21.6655 12.4113 21.2766 12.6979 20.9897L26.1078 7.73287C28.1181 5.72261 30.8446 4.59326 33.6875 4.59326C35.0952 4.59326 36.4891 4.87052 37.7896 5.40922C39.0901 5.94791 40.2718 6.73749 41.2672 7.73287C42.2626 8.72825 43.0521 9.90994 43.5908 11.2105C44.1295 12.511 44.4068 13.9049 44.4068 15.3126C44.4068 16.7202 44.1295 18.1141 43.5908 19.4147C43.0521 20.7152 42.2626 21.8969 41.2672 22.8922L28.0104 36.3022Z" stroke="#4460FD" stroke-width="2" stroke-linecap="round" stroke-linejoin="round"/>
<path d="M21.4375 12.3495V27.5625" stroke="#4460FD" stroke-width="2" stroke-linecap="round" stroke-linejoin="round"/>
<path d="M26.0312 22.9688H41.1906" stroke="#4460FD" stroke-width="2" stroke-linecap="round" stroke-linejoin="round"/>
</svg>
